<svg width="1215" height="461" viewBox="0 0 1215 461" fill="none" xmlns="http://www.w3.org/2000/svg">
<path opacity="0.6" d="M0 30C0 13.4315 13.4315 0 30 0H1185C1201.57 0 1215 13.4315 1215 30V431C1215 447.569 1201.57 461 1185 461H30C13.4314 461 0 447.569 0 431V30Z" fill="#187992"/>
<path opacity="0.6" d="M0 251.152C0 234.583 13.4315 221.152 30 221.152H1185C1201.57 221.152 1215 234.583 1215 251.152V431C1215 447.569 1201.57 461 1185 461H30C13.4314 461 0 447.569 0 431V251.152Z" fill="#187992" fill-opacity="0.6"/>
<path opacity="0.6" d="M0 398.052C0 381.484 13.4315 368.052 30 368.052H1185C1201.57 368.052 1215 381.484 1215 398.052V431C1215 447.568 1201.57 461 1185 461H30C13.4314 461 0 447.569 0 431V398.052Z" fill="#187992"/>
</svg>
