<svg width="28" height="26" viewBox="0 0 28 26" fill="none" xmlns="http://www.w3.org/2000/svg">
<path fill-rule="evenodd" clip-rule="evenodd" d="M8.88351 3.32009C9.83484 1.58102 11.6878 0.496814 13.703 0.500153C15.7539 0.485098 17.6454 1.58045 18.6195 3.34721L26.4304 17.5011C27.3571 19.1817 27.3125 21.2155 26.3129 22.8555C25.3134 24.4955 23.5064 25.5 21.5555 25.5H5.85053C3.89386 25.5004 2.08207 24.4904 1.08417 22.8428C0.0862563 21.1951 0.050259 19.1544 0.989465 17.474L8.88351 3.32009ZM16.7499 4.30978C16.1491 3.21063 14.9764 2.52707 13.703 2.53376C12.4483 2.54228 11.2974 3.21727 10.6978 4.29623L2.81756 18.423C2.22898 19.4706 2.25031 20.7448 2.87362 21.7729C3.49694 22.801 4.62926 23.4297 5.85053 23.4257H21.5555C22.7724 23.4185 23.8969 22.7887 24.5201 21.7655C25.1433 20.7422 25.1745 19.4745 24.6023 18.423L16.7499 4.30978Z" fill="white"/>
<path d="M13.703 16.7692C13.1294 16.7692 12.6643 17.2244 12.6643 17.786C12.6643 18.3476 13.1294 18.8028 13.703 18.8028C13.9796 18.8065 14.246 18.7005 14.4416 18.509C14.6373 18.3176 14.7455 18.0568 14.7417 17.786C14.7417 17.5175 14.6319 17.2603 14.4367 17.0717C14.2415 16.8832 13.9772 16.7791 13.703 16.7827V16.7692Z" fill="white"/>
<path d="M13.703 14.9118C13.1325 14.9045 12.6718 14.4535 12.6643 13.895V9.69222C12.6643 9.13066 13.1294 8.67542 13.703 8.67542C14.2767 8.67542 14.7417 9.13066 14.7417 9.69222V13.895C14.7417 14.4566 14.2767 14.9118 13.703 14.9118Z" fill="white"/>
</svg>
