<?xml version="1.0" standalone="no"?>
<!DOCTYPE svg PUBLIC "-//W3C//DTD SVG 20010904//EN"
 "http://www.w3.org/TR/2001/REC-SVG-20010904/DTD/svg10.dtd">
<svg version="1.0" xmlns="http://www.w3.org/2000/svg"
 width="8000.000000pt" height="8000.000000pt" viewBox="0 0 8000.000000 8000.000000"
 preserveAspectRatio="xMidYMid meet">

<g transform="translate(0.000000,8000.000000) scale(0.100000,-0.100000)"
fill="#000000" stroke="none">
<path d="M66353 52495 c0 -8 4 -12 9 -9 5 3 6 10 3 15 -9 13 -12 11 -12 -6z"/>
<path d="M66566 52060 c5 -8 9 -23 9 -32 0 -22 18 -25 21 -4 1 8 -7 23 -19 33
-13 12 -17 13 -11 3z"/>
<path d="M66594 51989 c-3 -6 -1 -16 5 -22 9 -9 10 -7 5 7 -6 15 -4 17 6 11 9
-5 11 -4 6 3 -9 15 -13 15 -22 1z"/>
<path d="M66560 51981 c0 -5 8 -15 18 -22 15 -12 16 -12 5 2 -7 9 -10 19 -6
22 3 4 1 7 -5 7 -7 0 -12 -4 -12 -9z"/>
<path d="M66606 51933 c-6 -14 -5 -15 5 -6 7 7 10 15 7 18 -3 3 -9 -2 -12 -12z"/>
<path d="M66635 51920 c4 -6 11 -8 16 -5 14 9 11 15 -7 15 -8 0 -12 -5 -9 -10z"/>
<path d="M66655 51890 c3 -5 8 -10 11 -10 2 0 4 5 4 10 0 6 -5 10 -11 10 -5 0
-7 -4 -4 -10z"/>
<path d="M66663 51835 c0 -6 6 -12 12 -12 6 0 12 6 12 12 0 6 -6 12 -12 12 -6
0 -12 -6 -12 -12z"/>
<path d="M66676 51787 c3 -10 9 -15 12 -12 3 3 0 11 -7 18 -10 9 -11 8 -5 -6z"/>
<path d="M66725 51659 c-4 -6 -4 -13 -1 -16 3 -4 6 -1 6 6 0 7 5 9 12 5 7 -4
8 -3 4 4 -9 15 -13 15 -21 1z"/>
<path d="M66735 51610 c3 -5 8 -10 11 -10 2 0 4 5 4 10 0 6 -5 10 -11 10 -5 0
-7 -4 -4 -10z"/>
<path d="M66770 51616 c0 -2 7 -7 16 -10 8 -3 12 -2 9 4 -6 10 -25 14 -25 6z"/>
<path d="M66840 51488 c0 -6 -3 -8 -7 -5 -8 9 -33 -12 -33 -27 0 -6 5 -3 11 7
7 13 14 15 23 8 8 -7 12 -5 13 10 1 10 0 19 -3 19 -2 0 -4 -5 -4 -12z"/>
<path d="M66864 51432 c4 -19 1 -22 -17 -17 -16 5 -18 4 -8 -3 11 -8 13 -51
12 -228 -1 -120 -6 -221 -10 -224 -5 -3 -12 -111 -16 -240 -4 -129 -11 -237
-16 -240 -4 -3 -11 -94 -15 -203 -4 -108 -11 -197 -16 -197 -4 0 -8 -54 -8
-120 0 -66 -4 -120 -9 -120 -5 0 -12 -72 -16 -160 -4 -88 -10 -160 -14 -160
-6 0 -26 -247 -38 -475 -3 -44 -9 -82 -14 -86 -5 -3 -12 -58 -16 -122 -3 -64
-10 -117 -15 -117 -4 0 -8 -30 -8 -67 0 -38 -7 -115 -15 -173 -8 -58 -15 -135
-15 -172 0 -38 -4 -68 -9 -68 -5 0 -12 -36 -16 -80 -4 -44 -11 -80 -16 -80 -5
0 -9 -26 -9 -57 0 -71 -31 -336 -40 -343 -4 -3 -10 -56 -13 -119 -4 -63 -11
-117 -15 -120 -5 -3 -17 -77 -27 -163 -10 -87 -22 -158 -26 -158 -4 0 -10 -36
-14 -80 -4 -44 -11 -80 -16 -80 -5 0 -9 -36 -9 -80 0 -44 -4 -80 -9 -80 -5 0
-12 -36 -16 -80 -4 -44 -11 -80 -15 -80 -4 0 -11 -36 -15 -80 -4 -44 -11 -80
-16 -80 -5 0 -9 -36 -9 -80 0 -44 -4 -80 -9 -80 -5 0 -12 -36 -16 -80 -4 -44
-11 -80 -15 -80 -4 0 -11 -36 -15 -80 -4 -44 -11 -80 -15 -80 -4 0 -11 -36
-15 -80 -4 -44 -10 -80 -15 -80 -4 0 -13 -54 -20 -120 -9 -82 -17 -120 -25
-120 -9 0 -15 -27 -20 -80 -4 -44 -11 -80 -16 -80 -5 0 -9 -36 -9 -80 0 -47
-4 -80 -10 -80 -5 0 -10 -18 -10 -40 0 -28 -4 -40 -14 -40 -10 0 -16 -22 -21
-80 -4 -44 -11 -80 -15 -80 -4 0 -11 -36 -15 -80 -4 -44 -11 -80 -16 -80 -5 0
-9 -18 -9 -40 0 -22 -4 -40 -9 -40 -5 0 -12 -36 -16 -80 -4 -44 -11 -80 -16
-80 -5 0 -9 -18 -9 -40 0 -22 -4 -40 -8 -40 -4 0 -13 -33 -19 -72 -6 -40 -16
-93 -23 -118 -6 -25 -14 -64 -17 -87 -3 -24 -9 -43 -14 -43 -5 0 -9 -18 -9
-40 0 -22 -4 -40 -10 -40 -5 0 -10 -18 -10 -40 0 -22 -4 -40 -10 -40 -5 0 -10
-18 -10 -40 0 -22 -4 -40 -8 -40 -7 0 -22 -76 -38 -197 -4 -25 -11 -43 -19
-43 -12 0 -27 -73 -26 -132 0 -16 -4 -28 -8 -28 -9 0 -17 -34 -27 -117 -4 -25
-11 -43 -19 -43 -12 0 -27 -73 -26 -132 0 -16 -4 -28 -9 -28 -6 0 -10 -10 -10
-23 0 -12 -10 -47 -21 -77 -12 -30 -24 -74 -26 -97 -3 -24 -8 -43 -13 -43 -4
0 -11 -31 -14 -70 -4 -39 -14 -76 -22 -84 -8 -8 -14 -31 -14 -50 0 -20 -4 -36
-10 -36 -5 0 -10 -13 -10 -29 0 -16 -7 -36 -15 -45 -8 -8 -15 -31 -15 -50 0
-20 -4 -36 -9 -36 -4 0 -12 -31 -15 -70 -4 -39 -14 -76 -22 -84 -8 -8 -14 -31
-14 -50 0 -20 -4 -36 -9 -36 -9 0 -17 -33 -27 -117 -4 -28 -11 -43 -20 -43
-10 0 -14 -12 -14 -40 0 -22 -4 -40 -10 -40 -5 0 -10 -18 -10 -40 0 -28 -4
-40 -14 -40 -11 0 -17 -19 -22 -71 -4 -38 -13 -76 -20 -84 -8 -7 -14 -30 -14
-49 0 -20 -4 -36 -10 -36 -5 0 -10 -13 -10 -29 0 -16 -7 -36 -15 -45 -8 -8
-15 -31 -15 -50 0 -20 -3 -36 -8 -36 -10 0 -33 -68 -39 -117 -3 -24 -9 -43
-14 -43 -5 0 -9 -18 -9 -40 0 -29 -4 -40 -15 -40 -11 0 -15 -11 -15 -40 0 -22
-4 -40 -10 -40 -5 0 -10 -13 -10 -29 0 -16 -7 -36 -15 -45 -8 -8 -15 -29 -15
-46 0 -17 -6 -33 -14 -36 -8 -3 -16 -29 -20 -66 -3 -34 -11 -65 -17 -68 -6 -4
-14 -31 -18 -61 -4 -30 -15 -70 -25 -89 -17 -32 -22 -50 -45 -150 -4 -19 -18
-55 -30 -80 -22 -43 -29 -65 -49 -155 -5 -22 -19 -60 -31 -85 -22 -42 -29 -66
-49 -157 -5 -21 -20 -62 -35 -91 -15 -30 -27 -62 -27 -73 0 -10 -4 -19 -10
-19 -5 0 -10 -7 -10 -15 0 -8 -4 -15 -10 -15 -5 0 -10 -13 -10 -29 0 -16 -7
-36 -15 -45 -8 -8 -15 -31 -15 -50 0 -20 -4 -36 -9 -36 -5 0 -11 -15 -14 -32
-7 -47 -38 -128 -48 -128 -5 0 -9 -18 -9 -40 0 -29 -4 -40 -15 -40 -11 0 -15
-11 -15 -40 0 -22 -4 -40 -10 -40 -5 0 -10 -9 -10 -21 0 -11 -5 -30 -12 -42
-17 -31 -38 -89 -38 -108 0 -9 -7 -22 -15 -29 -8 -7 -15 -25 -15 -41 0 -15 -7
-34 -15 -43 -8 -8 -15 -25 -15 -38 0 -13 -7 -32 -15 -42 -8 -11 -13 -27 -10
-36 5 -15 -2 -27 -45 -77 -5 -7 -10 -25 -10 -40 0 -16 -9 -51 -19 -78 -11 -28
-25 -66 -33 -85 -7 -19 -15 -37 -18 -40 -3 -3 -14 -32 -25 -65 -10 -33 -23
-64 -27 -69 -4 -6 -8 -17 -8 -25 0 -9 -7 -29 -15 -45 -8 -15 -15 -36 -15 -45
0 -9 -9 -29 -20 -46 -11 -16 -25 -47 -30 -67 -6 -21 -15 -38 -20 -38 -6 0 -10
-18 -10 -40 0 -22 -4 -40 -10 -40 -5 0 -10 -6 -10 -14 0 -7 -7 -19 -15 -26 -8
-7 -15 -25 -15 -41 0 -15 -7 -34 -15 -43 -8 -8 -15 -26 -15 -39 0 -14 -6 -30
-14 -36 -7 -6 -21 -36 -31 -66 -9 -30 -21 -55 -26 -55 -5 0 -9 -11 -9 -24 0
-14 -4 -28 -10 -31 -5 -3 -10 -17 -10 -29 0 -13 -7 -29 -15 -36 -8 -7 -15 -22
-15 -33 0 -11 -11 -43 -24 -71 -13 -28 -34 -75 -47 -103 -12 -29 -26 -53 -31
-53 -4 0 -8 -10 -8 -22 0 -13 -7 -32 -15 -42 -8 -11 -13 -27 -10 -36 5 -15 -2
-27 -45 -77 -5 -7 -10 -28 -10 -48 0 -19 -4 -35 -10 -35 -5 0 -10 -6 -10 -14
0 -7 -7 -19 -15 -26 -8 -7 -15 -25 -15 -41 0 -15 -6 -34 -14 -42 -8 -7 -21
-34 -29 -58 -21 -63 -49 -119 -59 -119 -4 0 -8 -9 -8 -19 0 -11 -7 -32 -15
-48 -8 -15 -16 -39 -19 -53 -3 -14 -14 -35 -26 -47 -11 -12 -20 -31 -20 -42 0
-11 -4 -23 -10 -26 -5 -3 -10 -17 -10 -29 0 -13 -7 -29 -15 -36 -8 -7 -15 -19
-15 -26 0 -8 -7 -14 -15 -14 -11 0 -15 -11 -15 -40 0 -22 -4 -40 -10 -40 -5 0
-10 -6 -10 -14 0 -7 -7 -19 -15 -26 -8 -7 -15 -25 -15 -41 0 -15 -6 -34 -14
-42 -8 -8 -22 -37 -32 -66 -9 -28 -20 -51 -24 -51 -4 0 -11 -11 -14 -25 -4
-14 -11 -25 -16 -25 -6 0 -10 -11 -10 -23 0 -13 -13 -48 -30 -78 -16 -30 -30
-61 -30 -71 0 -9 -3 -18 -7 -20 -12 -5 -63 -104 -63 -121 0 -9 -6 -22 -13 -29
-16 -18 -45 -77 -51 -108 -3 -14 -13 -34 -23 -45 -10 -11 -24 -40 -32 -65 -7
-25 -17 -52 -22 -60 -5 -8 -12 -23 -15 -32 -4 -10 -13 -18 -20 -18 -8 0 -14
-10 -14 -24 0 -14 -4 -28 -10 -31 -5 -3 -10 -17 -10 -29 0 -13 -7 -29 -15 -36
-8 -7 -15 -19 -15 -26 0 -8 -7 -14 -15 -14 -9 0 -15 -9 -15 -24 0 -14 -4 -28
-10 -31 -5 -3 -10 -17 -10 -29 0 -13 -7 -29 -15 -36 -8 -7 -15 -19 -15 -26 0
-8 -7 -14 -15 -14 -9 0 -15 -9 -15 -24 0 -14 -4 -28 -10 -31 -5 -3 -10 -17
-10 -29 0 -13 -7 -29 -15 -36 -8 -7 -15 -19 -15 -26 0 -8 -7 -14 -15 -14 -9 0
-15 -9 -15 -24 0 -14 -4 -28 -10 -31 -5 -3 -10 -17 -10 -29 0 -13 -7 -29 -15
-36 -8 -7 -15 -19 -15 -26 0 -8 -7 -14 -15 -14 -9 0 -15 -9 -15 -24 0 -14 -4
-28 -10 -31 -5 -3 -10 -17 -10 -29 0 -13 -7 -29 -15 -36 -8 -7 -15 -19 -15
-26 0 -8 -7 -14 -15 -14 -9 0 -15 -9 -15 -24 0 -14 -4 -28 -10 -31 -5 -3 -10
-17 -10 -29 0 -13 -7 -29 -15 -36 -8 -7 -15 -19 -15 -26 0 -8 -6 -14 -12 -14
-14 0 -43 -57 -52 -100 -3 -14 -14 -35 -26 -47 -11 -12 -20 -31 -20 -43 0 -11
-7 -20 -15 -20 -9 0 -20 -20 -30 -55 -9 -30 -19 -55 -23 -55 -4 0 -23 -32 -42
-70 -19 -39 -38 -70 -42 -70 -5 0 -8 -9 -8 -19 0 -22 -31 -81 -42 -81 -5 0 -8
-6 -8 -14 0 -8 -6 -21 -13 -28 -19 -19 -67 -119 -67 -140 0 -10 -7 -18 -15
-18 -8 0 -15 -9 -15 -20 0 -11 -3 -20 -8 -20 -7 0 -25 -30 -38 -62 -3 -10 -13
-18 -20 -18 -10 0 -14 -13 -14 -40 0 -22 -3 -40 -8 -40 -7 0 -25 -30 -38 -62
-3 -10 -11 -18 -18 -18 -11 0 -76 -125 -76 -148 0 -6 -3 -12 -7 -12 -5 0 -17
-18 -27 -40 -11 -22 -23 -40 -28 -40 -4 0 -8 -6 -8 -14 0 -8 -6 -21 -13 -28
-7 -7 -26 -40 -41 -73 -15 -33 -32 -67 -37 -75 -5 -8 -12 -22 -16 -30 -4 -8
-9 -17 -12 -20 -10 -9 -31 -44 -37 -62 -4 -10 -11 -18 -18 -18 -11 0 -76 -125
-76 -148 0 -6 -3 -12 -8 -12 -4 0 -20 -27 -35 -60 -16 -33 -35 -60 -43 -60 -8
0 -14 -9 -14 -20 0 -11 -3 -20 -8 -20 -7 0 -25 -30 -38 -62 -3 -10 -13 -18
-20 -18 -8 0 -14 -8 -14 -19 0 -17 -55 -130 -69 -141 -3 -3 -15 -22 -26 -42
-11 -21 -23 -38 -26 -38 -4 0 -10 -11 -13 -25 -4 -14 -11 -25 -16 -25 -6 0
-10 -7 -10 -15 0 -8 -3 -15 -8 -15 -7 0 -25 -30 -38 -62 -3 -10 -13 -18 -20
-18 -8 0 -14 -10 -14 -25 0 -13 -6 -28 -14 -32 -8 -4 -16 -19 -18 -33 -1 -14
-13 -29 -25 -35 -17 -7 -23 -18 -23 -40 0 -19 -10 -39 -25 -54 -14 -13 -25
-32 -25 -42 0 -10 -7 -19 -15 -19 -8 0 -15 -9 -15 -20 0 -11 -3 -20 -8 -20 -7
0 -25 -30 -38 -62 -3 -10 -11 -18 -18 -18 -10 0 -25 -28 -55 -102 -6 -16 -17
-28 -26 -28 -8 0 -15 -7 -15 -15 0 -8 -3 -15 -8 -15 -7 0 -25 -30 -38 -62 -3
-10 -13 -18 -20 -18 -8 0 -14 -10 -14 -25 0 -14 -7 -28 -15 -31 -8 -4 -15 -15
-15 -26 0 -21 -22 -48 -39 -48 -6 0 -11 -13 -11 -29 0 -20 -12 -43 -40 -73
-22 -23 -40 -53 -40 -65 0 -14 -6 -23 -15 -23 -8 0 -15 -7 -15 -16 0 -8 -6
-22 -12 -29 -28 -31 -38 -44 -38 -51 0 -3 -9 -17 -20 -31 -11 -14 -20 -35 -20
-45 0 -11 -9 -22 -20 -25 -11 -3 -20 -14 -20 -24 0 -11 -7 -19 -16 -19 -8 0
-13 -4 -10 -9 5 -7 -3 -20 -44 -68 -5 -7 -10 -15 -10 -18 0 -4 -11 -21 -25
-39 -14 -18 -25 -40 -25 -49 0 -10 -7 -17 -15 -17 -8 0 -15 -7 -15 -16 0 -8
-6 -21 -12 -28 -7 -8 -20 -24 -28 -36 -8 -12 -21 -28 -27 -36 -7 -7 -13 -16
-13 -19 0 -4 -9 -18 -20 -32 -11 -14 -20 -35 -20 -45 0 -11 -9 -22 -20 -25
-11 -3 -20 -14 -20 -24 0 -11 -7 -19 -15 -19 -8 0 -15 -7 -15 -16 0 -8 -6 -22
-12 -29 -30 -33 -38 -45 -38 -53 0 -5 -17 -28 -37 -52 -35 -39 -52 -64 -70
-100 -10 -21 -30 -40 -42 -40 -6 0 -11 -7 -11 -15 0 -8 -3 -15 -8 -15 -7 0
-25 -30 -38 -62 -3 -10 -13 -18 -20 -18 -8 0 -14 -10 -14 -25 0 -16 -6 -25
-15 -25 -14 0 -20 -12 -16 -33 3 -16 -20 -47 -34 -47 -8 0 -15 -7 -15 -15 0
-8 -3 -15 -8 -15 -7 0 -25 -30 -38 -62 -3 -10 -13 -18 -20 -18 -8 0 -14 -6
-14 -13 0 -8 -11 -27 -25 -43 -14 -16 -25 -37 -25 -46 0 -10 -7 -18 -15 -18
-8 0 -15 -9 -15 -20 0 -11 -6 -20 -14 -20 -7 0 -16 -9 -19 -21 -3 -11 -15 -23
-26 -26 -14 -4 -21 -13 -21 -30 0 -25 -49 -83 -69 -83 -6 0 -11 -11 -11 -25 0
-16 -6 -25 -15 -25 -9 0 -18 -13 -22 -31 -3 -19 -14 -34 -25 -36 -10 -3 -18
-14 -18 -24 0 -11 -3 -19 -8 -19 -7 0 -25 -30 -38 -62 -3 -10 -13 -18 -20 -18
-8 0 -14 -6 -14 -13 0 -7 -12 -26 -27 -44 -64 -71 -83 -96 -83 -107 -1 -16
-25 -46 -39 -46 -6 0 -11 -7 -11 -15 0 -8 -3 -15 -8 -15 -7 0 -25 -30 -38 -62
-3 -10 -13 -18 -20 -18 -8 0 -14 -6 -14 -13 0 -7 -12 -26 -27 -44 -64 -71 -83
-96 -83 -107 -1 -16 -25 -46 -39 -46 -6 0 -11 -7 -11 -15 0 -8 -3 -15 -8 -15
-7 0 -25 -30 -38 -62 -3 -10 -13 -18 -20 -18 -8 0 -14 -7 -14 -15 0 -17 -49
-65 -67 -65 -7 0 -13 -11 -13 -25 0 -16 -6 -25 -15 -25 -9 0 -18 -13 -22 -31
-3 -19 -14 -34 -25 -36 -10 -3 -18 -12 -18 -19 0 -8 -21 -36 -47 -62 -50 -50
-70 -76 -79 -104 -4 -10 -13 -18 -20 -18 -8 0 -14 -6 -14 -13 0 -7 -10 -24
-22 -37 -13 -13 -21 -32 -20 -41 2 -12 -9 -23 -32 -34 -25 -12 -36 -24 -38
-43 -2 -16 -12 -31 -25 -37 -13 -5 -23 -15 -23 -22 0 -7 -4 -13 -10 -13 -5 0
-10 -4 -10 -10 0 -10 -59 -70 -69 -70 -6 0 -25 -32 -37 -62 -3 -10 -13 -18
-20 -18 -8 0 -14 -6 -14 -13 0 -7 -10 -24 -22 -37 -13 -13 -21 -32 -20 -41 2
-12 -9 -23 -32 -34 -21 -10 -38 -28 -45 -46 -5 -16 -17 -29 -25 -29 -9 0 -16
-6 -16 -14 0 -7 -22 -36 -48 -62 -26 -27 -56 -62 -66 -79 -11 -16 -25 -37 -32
-45 -8 -8 -26 -30 -40 -47 -14 -18 -32 -33 -40 -33 -8 0 -14 -10 -14 -25 0
-16 -6 -25 -15 -25 -9 0 -18 -12 -22 -30 -4 -21 -15 -35 -39 -46 -20 -9 -37
-27 -43 -45 -5 -16 -17 -29 -25 -29 -9 0 -16 -9 -16 -20 0 -11 -6 -20 -14 -20
-7 0 -16 -9 -19 -21 -3 -11 -14 -23 -25 -26 -11 -3 -23 -16 -27 -30 -6 -25
-58 -83 -75 -83 -6 0 -10 -6 -10 -13 0 -8 -16 -27 -35 -43 -19 -16 -35 -36
-35 -44 0 -20 -43 -60 -64 -60 -10 0 -16 -9 -16 -25 0 -14 -6 -25 -13 -25 -8
0 -20 -11 -27 -25 -7 -14 -18 -25 -24 -25 -6 0 -4 -5 4 -10 20 -13 33 -13 25
0 -3 6 1 7 9 4 10 -4 16 -1 16 7 0 7 3 9 7 5 4 -4 -2 -15 -14 -24 -22 -17 -22
-17 -3 -42 17 -21 21 -23 31 -10 9 13 10 12 5 -3 -7 -22 11 -60 25 -52 5 4 9
-1 9 -9 0 -8 8 -20 18 -25 9 -6 13 -11 8 -11 -12 0 14 -30 26 -30 6 0 4 8 -3
18 -12 15 -12 16 2 5 9 -7 20 -9 25 -5 4 4 2 -1 -5 -10 -11 -14 -11 -21 -1
-33 7 -8 16 -13 20 -10 5 3 12 0 16 -6 4 -8 3 -9 -4 -5 -7 4 -12 2 -12 -3 0
-6 5 -11 10 -11 6 0 10 -6 10 -13 0 -15 40 -56 55 -56 5 0 11 -5 13 -13 2 -9
0 -8 -8 2 -6 8 -10 10 -8 4 2 -7 18 -29 35 -50 18 -22 63 -77 99 -124 37 -47
71 -84 75 -83 5 2 8 0 6 -5 -1 -4 118 -167 264 -362 516 -688 879 -1226 1306
-1935 762 -1264 1430 -2682 1904 -4039 33 -93 63 -174 67 -181 5 -9 62 45 178
168 2769 2945 4894 6417 6244 10202 938 2630 1495 5409 1645 8215 54 1018 54
2170 -1 3180 -112 2076 -446 4149 -988 6125 -139 506 -322 1118 -337 1123 -5
2 -7 7 -4 12 8 12 -225 710 -236 710 -6 0 -8 4 -4 9 3 5 -5 36 -17 68 -12 32
-23 63 -24 68 -3 16 -185 515 -205 563 -13 30 -23 41 -31 36 -9 -6 -9 -3 1 9
7 9 11 18 7 18 -3 1 -10 2 -15 3 -5 0 -13 5 -18 10 -4 5 -3 6 4 2 22 -13 22
11 -2 62 -13 29 -22 52 -19 52 3 0 -1 10 -8 23 -7 12 -13 24 -13 27 -4 26 -29
80 -36 80 -6 0 -8 4 -4 9 8 13 -53 162 -73 179 -9 7 -11 11 -4 7 6 -3 12 -4
12 -2 0 10 -53 133 -62 145 -6 6 -8 12 -4 12 4 0 -1 15 -11 33 -9 17 -18 39
-20 47 -4 29 -44 110 -53 110 -4 0 -7 8 -6 18 3 16 -8 46 -53 144 -11 26 -21
52 -21 57 0 15 -17 14 -23 -1 -4 -8 -6 -7 -6 4 -1 9 3 18 8 20 6 2 1 21 -10
43 -11 22 -17 30 -15 17z m16 -38 c0 -8 -5 -12 -10 -9 -6 4 -8 11 -5 16 9 14
15 11 15 -7z m15 -84 c-4 -6 -1 -19 6 -28 12 -16 12 -16 -5 0 -16 14 -15 38 0
38 3 0 2 -5 -1 -10z m32 -52 c-3 -8 -6 -5 -6 6 -1 11 2 17 5 13 3 -3 4 -12 1
-19z m18 -28 c-3 -5 -1 -10 6 -10 7 0 10 -3 6 -6 -9 -9 -28 6 -22 17 4 5 8 9
11 9 3 0 2 -4 -1 -10z m-21 -18 c2 -4 -4 -9 -15 -9 -11 -1 -17 2 -14 8 7 11
22 12 29 1z m57 -140 c-6 -2 -8 -9 -4 -15 3 -7 2 -9 -2 -4 -5 4 -10 17 -12 29
-3 18 -1 19 13 7 10 -8 12 -15 5 -17z m43 -17 c3 -8 1 -15 -4 -15 -6 0 -10 7
-10 15 0 8 2 15 4 15 2 0 6 -7 10 -15z m30 -121 c3 -8 2 -12 -4 -9 -6 3 -10
10 -10 16 0 14 7 11 14 -7z m19 -115 c5 -3 2 -9 -5 -12 -9 -3 -14 3 -15 15 -1
11 1 16 5 12 4 -5 11 -12 15 -15z m78 -101 c6 -13 8 -20 4 -16 -4 4 -14 0 -22
-10 -13 -15 -13 -15 -3 6 6 12 8 27 5 32 -3 6 -4 10 -1 10 3 0 11 -10 17 -22z
m24 -69 c-4 -5 -12 -9 -18 -8 -9 0 -8 2 1 6 6 2 9 10 6 15 -4 7 -2 8 5 4 6 -4
9 -12 6 -17z m62 -157 c15 -20 17 -29 8 -29 -8 0 -13 3 -12 6 1 3 -4 16 -11
29 -17 31 -10 28 15 -6z m12 -75 c8 -10 7 -14 -2 -14 -8 0 -14 6 -14 14 0 7 1
13 2 13 2 0 8 -6 14 -13z m78 -164 c-4 -3 -1 -13 6 -22 11 -14 10 -14 -5 -2
-16 12 -16 31 -1 31 4 0 3 -3 0 -7z m-367 -253 c0 -47 -4 -80 -10 -80 -6 0
-10 33 -10 80 0 47 4 80 10 80 6 0 10 -33 10 -80z m-80 -920 c0 -22 -4 -40
-10 -40 -5 0 -10 18 -10 40 0 22 5 40 10 40 6 0 10 -18 10 -40z m-80 -720 c0
-22 -4 -40 -10 -40 -5 0 -10 18 -10 40 0 22 5 40 10 40 6 0 10 -18 10 -40z
m-240 -1680 c0 -22 -4 -40 -10 -40 -5 0 -10 18 -10 40 0 22 5 40 10 40 6 0 10
-18 10 -40z m-160 -880 c0 -22 -4 -40 -10 -40 -5 0 -10 18 -10 40 0 22 5 40
10 40 6 0 10 -18 10 -40z m-240 -1200 c0 -22 -4 -40 -10 -40 -5 0 -10 18 -10
40 0 22 5 40 10 40 6 0 10 -18 10 -40z m-240 -1040 c0 -22 -4 -40 -10 -40 -5
0 -10 18 -10 40 0 22 5 40 10 40 6 0 10 -18 10 -40z m-80 -320 c0 -22 -4 -40
-10 -40 -5 0 -10 18 -10 40 0 22 5 40 10 40 6 0 10 -18 10 -40z m-240 -880 c0
-22 -4 -40 -10 -40 -5 0 -10 18 -10 40 0 22 5 40 10 40 6 0 10 -18 10 -40z
m-160 -560 c0 -22 -4 -40 -10 -40 -5 0 -10 18 -10 40 0 22 5 40 10 40 6 0 10
-18 10 -40z m-320 -1040 c0 -22 -4 -40 -10 -40 -5 0 -10 18 -10 40 0 22 5 40
10 40 6 0 10 -18 10 -40z m-80 -240 c0 -22 -4 -40 -10 -40 -5 0 -10 18 -10 40
0 22 5 40 10 40 6 0 10 -18 10 -40z m-80 -240 c0 -22 -4 -40 -10 -40 -5 0 -10
18 -10 40 0 22 5 40 10 40 6 0 10 -18 10 -40z m247 -282 c-3 -8 -6 -5 -6 6 -1
11 2 17 5 13 3 -3 4 -12 1 -19z m-617 -562 c0 -2 -7 -9 -15 -16 -12 -10 -15
-10 -15 4 0 9 7 16 15 16 8 0 15 -2 15 -4z m50 -61 c0 -8 -7 -15 -16 -15 -14
0 -14 3 -4 15 7 8 14 15 16 15 2 0 4 -7 4 -15z m-80 -215 c0 -22 -4 -40 -10
-40 -5 0 -10 18 -10 40 0 22 5 40 10 40 6 0 10 -18 10 -40z m-243 -232 c-3 -7
-5 -2 -5 12 0 14 2 19 5 13 2 -7 2 -19 0 -25z m33 -132 c0 -2 -7 -9 -15 -16
-12 -10 -15 -10 -15 4 0 9 7 16 15 16 8 0 15 -2 15 -4z m50 -61 c0 -8 -7 -15
-16 -15 -14 0 -14 3 -4 15 7 8 14 15 16 15 2 0 4 -7 4 -15z m-370 -739 c0 -2
-7 -9 -15 -16 -12 -10 -15 -10 -15 4 0 9 7 16 15 16 8 0 15 -2 15 -4z m50 -61
c0 -8 -7 -15 -16 -15 -14 0 -14 3 -4 15 7 8 14 15 16 15 2 0 4 -7 4 -15z
m-243 -247 c-3 -7 -5 -2 -5 12 0 14 2 19 5 13 2 -7 2 -19 0 -25z m103 6 c0 -8
-4 -14 -10 -14 -5 0 -10 9 -10 21 0 11 5 17 10 14 6 -3 10 -13 10 -21z m-80
-98 c0 -3 -4 -8 -10 -11 -5 -3 -10 -1 -10 4 0 6 5 11 10 11 6 0 10 -2 10 -4z
m60 -46 c0 -20 -5 -30 -15 -30 -18 0 -18 1 -5 34 13 34 20 33 20 -4z m-323
-422 c-3 -7 -5 -2 -5 12 0 14 2 19 5 13 2 -7 2 -19 0 -25z m23 -92 c0 -3 -4
-8 -10 -11 -5 -3 -10 -1 -10 4 0 6 5 11 10 11 6 0 10 -2 10 -4z m60 -46 c0
-20 -5 -30 -15 -30 -18 0 -18 1 -5 34 13 34 20 33 20 -4z m-130 -114 c0 -2 -7
-9 -15 -16 -12 -10 -15 -10 -15 4 0 9 7 16 15 16 8 0 15 -2 15 -4z m50 -61 c0
-8 -7 -15 -16 -15 -14 0 -14 3 -4 15 7 8 14 15 16 15 2 0 4 -7 4 -15z m-220
-401 c0 -8 -4 -14 -10 -14 -5 0 -10 9 -10 21 0 11 5 17 10 14 6 -3 10 -13 10
-21z m-183 -126 c-3 -7 -5 -2 -5 12 0 14 2 19 5 13 2 -7 2 -19 0 -25z m90 0
c-3 -7 -5 -2 -5 12 0 14 2 19 5 13 2 -7 2 -19 0 -25z m400 10 c-3 -8 -6 -5 -6
6 -1 11 2 17 5 13 3 -3 4 -12 1 -19z m-407 -193 c0 -16 -6 -25 -15 -25 -16 0
-19 9 -9 34 9 25 24 19 24 -9z m-80 -165 c0 -13 -7 -20 -20 -20 -19 0 -27 20
-13 33 13 14 33 6 33 -13z m-64 -97 c-11 -11 -19 6 -11 24 8 17 8 17 12 0 3
-10 2 -21 -1 -24z m-66 -7 c0 -2 -7 -9 -15 -16 -12 -10 -15 -10 -15 4 0 9 7
16 15 16 8 0 15 -2 15 -4z m50 -61 c0 -8 -7 -15 -16 -15 -14 0 -14 3 -4 15 7
8 14 15 16 15 2 0 4 -7 4 -15z m-130 -99 c0 -2 -7 -9 -15 -16 -12 -10 -15 -10
-15 4 0 9 7 16 15 16 8 0 15 -2 15 -4z m50 -61 c0 -8 -7 -15 -16 -15 -14 0
-14 3 -4 15 7 8 14 15 16 15 2 0 4 -7 4 -15z m340 0 c0 -8 -4 -15 -10 -15 -5
0 -10 7 -10 15 0 8 5 15 10 15 6 0 10 -7 10 -15z m-470 -99 c0 -2 -7 -9 -15
-16 -12 -10 -15 -10 -15 4 0 9 7 16 15 16 8 0 15 -2 15 -4z m50 -61 c0 -8 -7
-15 -16 -15 -14 0 -14 3 -4 15 7 8 14 15 16 15 2 0 4 -7 4 -15z m340 0 c0 -8
-4 -15 -10 -15 -5 0 -10 7 -10 15 0 8 5 15 10 15 6 0 10 -7 10 -15z m-630
-419 c0 -2 -7 -9 -15 -16 -12 -10 -15 -10 -15 4 0 9 7 16 15 16 8 0 15 -2 15
-4z m50 -61 c0 -8 -7 -15 -16 -15 -14 0 -14 3 -4 15 7 8 14 15 16 15 2 0 4 -7
4 -15z m-130 -99 c0 -2 -7 -9 -15 -16 -12 -10 -15 -10 -15 4 0 9 7 16 15 16 8
0 15 -2 15 -4z m50 -61 c0 -8 -7 -15 -16 -15 -14 0 -14 3 -4 15 7 8 14 15 16
15 2 0 4 -7 4 -15z m-80 -155 c0 -13 -7 -20 -20 -20 -19 0 -27 20 -13 33 13
14 33 6 33 -13z m340 -5 c0 -8 -4 -15 -10 -15 -5 0 -10 7 -10 15 0 8 5 15 10
15 6 0 10 -7 10 -15z m-404 -92 c-11 -11 -19 6 -11 24 8 17 8 17 12 0 3 -10 2
-21 -1 -24z m-16 -63 c0 -13 -7 -20 -20 -20 -19 0 -27 20 -13 33 13 14 33 6
33 -13z m-63 -92 c-3 -8 -6 -5 -6 6 -1 11 2 17 5 13 3 -3 4 -12 1 -19z m-17
-63 c0 -16 -6 -25 -15 -25 -16 0 -19 9 -9 34 9 25 24 19 24 -9z m-220 -335 c0
-5 -5 -10 -11 -10 -5 0 -7 5 -4 10 3 6 8 10 11 10 2 0 4 -4 4 -10z m307 -112
c-3 -8 -6 -5 -6 6 -1 11 2 17 5 13 3 -3 4 -12 1 -19z m-487 -278 c0 -13 -7
-20 -20 -20 -19 0 -27 20 -13 33 13 14 33 6 33 -13z m-64 -97 c-11 -11 -19 6
-11 24 8 17 8 17 12 0 3 -10 2 -21 -1 -24z m-156 -233 c0 -5 -5 -10 -11 -10
-5 0 -7 5 -4 10 3 6 8 10 11 10 2 0 4 -4 4 -10z m307 -112 c-3 -8 -6 -5 -6 6
-1 11 2 17 5 13 3 -3 4 -12 1 -19z m-407 -118 c0 -13 -7 -20 -20 -20 -19 0
-27 20 -13 33 13 14 33 6 33 -13z m-64 -97 c-11 -11 -19 6 -11 24 8 17 8 17
12 0 3 -10 2 -21 -1 -24z m-226 -247 c0 -2 -7 -9 -15 -16 -12 -10 -15 -10 -15
4 0 9 7 16 15 16 8 0 15 -2 15 -4z m50 -61 c0 -8 -7 -15 -16 -15 -14 0 -14 3
-4 15 7 8 14 15 16 15 2 0 4 -7 4 -15z m-63 -87 c-3 -8 -6 -5 -6 6 -1 11 2 17
5 13 3 -3 4 -12 1 -19z m-227 -252 c0 -2 -7 -9 -15 -16 -12 -10 -15 -10 -15 4
0 9 7 16 15 16 8 0 15 -2 15 -4z m50 -61 c0 -8 -7 -15 -16 -15 -14 0 -14 3 -4
15 7 8 14 15 16 15 2 0 4 -7 4 -15z m-64 -92 c-11 -11 -19 6 -11 24 8 17 8 17
12 0 3 -10 2 -21 -1 -24z m-176 -303 c0 -13 -7 -20 -20 -20 -19 0 -27 20 -13
33 13 14 33 6 33 -13z m-160 -235 c0 -16 -6 -25 -15 -25 -18 0 -20 21 -3 38
17 17 18 16 18 -13z m-60 -85 c0 -11 -4 -20 -10 -20 -5 0 -10 9 -10 20 0 11 5
20 10 20 6 0 10 -9 10 -20z m-164 -257 c-11 -11 -19 6 -11 24 8 17 8 17 12 0
3 -10 2 -21 -1 -24z m-159 -235 c-3 -8 -6 -5 -6 6 -1 11 2 17 5 13 3 -3 4 -12
1 -19z m-160 -240 c-3 -8 -6 -5 -6 6 -1 11 2 17 5 13 3 -3 4 -12 1 -19z m-160
-240 c-3 -8 -6 -5 -6 6 -1 11 2 17 5 13 3 -3 4 -12 1 -19z m-157 -228 c0 -11
-4 -20 -10 -20 -5 0 -10 9 -10 20 0 11 5 20 10 20 6 0 10 -9 10 -20z m-80 -90
c0 -5 -5 -10 -11 -10 -5 0 -7 5 -4 10 3 6 8 10 11 10 2 0 4 -4 4 -10z m-20
-70 c0 -13 -7 -20 -20 -20 -19 0 -27 20 -13 33 13 14 33 6 33 -13z m-160 -240
c0 -13 -7 -20 -20 -20 -19 0 -27 20 -13 33 13 14 33 6 33 -13z m-143 -172 c-3
-8 -6 -5 -6 6 -1 11 2 17 5 13 3 -3 4 -12 1 -19z m-97 -143 c0 -16 -6 -25 -15
-25 -18 0 -20 21 -3 38 17 17 18 16 18 -13z m-143 -177 c-3 -8 -6 -5 -6 6 -1
11 2 17 5 13 3 -3 4 -12 1 -19z m-480 -640 c-3 -8 -6 -5 -6 6 -1 11 2 17 5 13
3 -3 4 -12 1 -19z m-97 -143 c0 -16 -6 -25 -15 -25 -18 0 -20 21 -3 38 17 17
18 16 18 -13z m-143 -177 c-3 -8 -6 -5 -6 6 -1 11 2 17 5 13 3 -3 4 -12 1 -19z
m-77 -78 c0 -5 -5 -10 -11 -10 -5 0 -7 5 -4 10 3 6 8 10 11 10 2 0 4 -4 4 -10z
m-20 -70 c0 -13 -7 -20 -20 -20 -19 0 -27 20 -13 33 13 14 33 6 33 -13z m-223
-252 c-3 -8 -6 -5 -6 6 -1 11 2 17 5 13 3 -3 4 -12 1 -19z m-77 -78 c0 -5 -5
-10 -11 -10 -5 0 -7 5 -4 10 3 6 8 10 11 10 2 0 4 -4 4 -10z m-20 -70 c0 -13
-7 -20 -20 -20 -19 0 -27 20 -13 33 13 14 33 6 33 -13z m-130 -24 c0 -2 -7 -9
-15 -16 -12 -10 -15 -10 -15 4 0 9 7 16 15 16 8 0 15 -2 15 -4z m50 -61 c0 -8
-7 -15 -16 -15 -14 0 -14 3 -4 15 7 8 14 15 16 15 2 0 4 -7 4 -15z m-144 -172
c-11 -11 -19 6 -11 24 8 17 8 17 12 0 3 -10 2 -21 -1 -24z m-176 -223 c0 -13
-7 -20 -20 -20 -19 0 -27 20 -13 33 13 14 33 6 33 -13z m-224 -257 c-11 -11
-19 6 -11 24 8 17 8 17 12 0 3 -10 2 -21 -1 -24z m-256 -303 c0 -13 -7 -20
-20 -20 -19 0 -27 20 -13 33 13 14 33 6 33 -13z m-105 -29 c3 -5 0 -13 -6 -17
-7 -4 -9 -3 -5 4 3 5 0 13 -6 15 -9 4 -10 6 -1 6 6 1 14 -3 18 -8z m9 -39 c2
-4 -4 -8 -14 -8 -10 0 -16 4 -14 8 3 4 9 8 14 8 5 0 11 -4 14 -8z m91 -52 c-3
-5 -14 -10 -23 -9 -14 0 -13 2 3 9 27 11 27 11 20 0z m63 -72 c-2 -7 3 -12 10
-10 8 1 11 -2 7 -8 -5 -8 -11 -8 -21 1 -7 6 -11 15 -8 20 8 13 14 11 12 -3z"/>
<path d="M56850 27256 c7 -7 13 -7 20 0 6 6 3 10 -10 10 -13 0 -16 -4 -10 -10z"/>
<path d="M56895 27149 c3 -4 0 -9 -6 -11 -6 -2 0 -12 13 -23 13 -11 17 -13 11
-5 -15 16 -17 34 -4 26 4 -3 16 0 25 7 14 10 12 12 -14 13 -16 1 -27 -2 -25
-7z"/>
<path d="M56946 27113 c-6 -14 -5 -15 5 -6 7 7 10 15 7 18 -3 3 -9 -2 -12 -12z"/>
</g>
</svg>
