<svg width="34" height="28" viewBox="0 0 34 28" fill="none" xmlns="http://www.w3.org/2000/svg">
<path fill-rule="evenodd" clip-rule="evenodd" d="M8.58841 0.00150636H25.5126C30.0921 -0.0309695 33.8628 3.01448 34 6.85649V17.146C33.8627 20.9936 30.0818 24.0412 25.4958 24.001H22.8687C22.2143 24.0027 21.5957 24.252 21.1847 24.6794L18.6924 27.3366C18.2765 27.7569 17.6593 28 17.0084 28C16.3575 28 15.7403 27.7569 15.3244 27.3366L12.8153 24.6794C12.4043 24.252 11.7857 24.0027 11.1313 24.001H8.58841C3.96985 24.0803 0.13762 21.0215 0 17.146V6.85649C0.13762 2.981 3.96985 -0.0777588 8.58841 0.00150636ZM10.6934 14.8139C11.3909 14.8139 11.9564 14.3393 11.9564 13.7539V10.3617C11.9564 9.77627 11.3909 9.30167 10.6934 9.30167C9.99588 9.30167 9.43041 9.77627 9.43041 10.3617V13.7539C9.43041 14.3393 9.99588 14.8139 10.6934 14.8139ZM18.2714 13.7539C18.2714 14.3393 17.706 14.8139 17.0084 14.8139C16.3109 14.8139 15.7454 14.3393 15.7454 13.7539V10.3617C15.7454 9.77627 16.3109 9.30167 17.0084 9.30167C17.706 9.30167 18.2714 9.77627 18.2714 10.3617V13.7539ZM23.3234 14.8139C24.021 14.8139 24.5864 14.3393 24.5864 13.7539V10.3617C24.5864 9.77627 24.021 9.30167 23.3234 9.30167C22.6259 9.30167 22.0604 9.77627 22.0604 10.3617V13.7539C22.0604 14.3393 22.6259 14.8139 23.3234 14.8139Z" fill="white"/>
</svg>
