<svg width="30" height="21" viewBox="0 0 30 21" fill="none" xmlns="http://www.w3.org/2000/svg">
<path d="M15 12.3334C16.7262 12.3334 18.2887 11.6801 19.42 10.6242C20.55 9.56958 21.25 8.11125 21.25 6.50008C21.25 4.88891 20.55 3.43058 19.42 2.37591C18.2887 1.32008 16.7262 0.666748 15 0.666748C13.2738 0.666748 11.7112 1.32008 10.58 2.37591C9.45 3.43058 8.75 4.88891 8.75 6.50008C8.75 8.11125 9.45 9.56958 10.58 10.6242C11.1598 11.1669 11.8487 11.5972 12.6072 11.8905C13.3658 12.1838 14.1789 12.3344 15 12.3334ZM25 13.5001C25.4106 13.5008 25.8173 13.4259 26.1969 13.2796C26.5764 13.1333 26.9212 12.9185 27.2115 12.6475C27.5019 12.3765 27.732 12.0547 27.8888 11.7005C28.0456 11.3463 28.1258 10.9667 28.125 10.5834C28.125 9.77841 27.7762 9.04925 27.21 8.52075C26.9201 8.24951 26.5756 8.03443 26.1963 7.88788C25.8171 7.74132 25.4105 7.66617 25 7.66675C24.5894 7.66598 24.1827 7.7409 23.8031 7.8872C23.4236 8.0335 23.0788 8.24831 22.7885 8.51931C22.4981 8.7903 22.268 9.11213 22.1112 9.46634C21.9544 9.82056 21.8742 10.2002 21.875 10.5834C21.8743 10.9666 21.9547 11.3462 22.1115 11.7003C22.2683 12.0544 22.4985 12.3762 22.7888 12.6472C23.0791 12.9181 23.4239 13.133 23.8033 13.2793C24.1828 13.4257 24.5894 13.5007 25 13.5001ZM25 14.1884C23.3363 14.1884 22.085 14.6621 21.3538 15.3177C19.96 14.2479 17.7563 13.5001 15 13.5001C12.1675 13.5001 10.0063 14.2561 8.635 15.3247C7.89 14.6656 6.625 14.1884 5 14.1884C2.265 14.1884 0.625 15.4601 0.625 16.7341C0.625 17.3699 2.265 18.0081 5 18.0081C5.755 18.0081 6.4325 17.9486 7.02875 17.8529L6.97875 18.1679C6.97875 19.3346 9.98625 20.5012 15 20.5012C19.7025 20.5012 23.0212 19.3346 23.0212 18.1679L22.9963 17.8704C23.575 17.9556 24.24 18.0081 25 18.0081C27.5637 18.0081 29.375 17.3699 29.375 16.7341C29.375 15.4601 27.6588 14.1884 25 14.1884ZM5 13.5001C5.8625 13.5001 6.64375 13.1746 7.21 12.6461C7.50061 12.3755 7.73105 12.054 7.88808 11.7C8.04511 11.346 8.12562 10.9665 8.125 10.5834C8.12582 10.2002 8.04556 9.82056 7.8888 9.46634C7.73205 9.11213 7.50189 8.7903 7.21155 8.51931C6.9212 8.24831 6.57637 8.0335 6.19686 7.8872C5.81735 7.7409 5.41061 7.66598 5 7.66675C4.58943 7.66613 4.18278 7.74116 3.80334 7.88751C3.4239 8.03387 3.07914 8.24869 2.78882 8.51965C2.49851 8.79061 2.26835 9.11238 2.11154 9.46653C1.95472 9.82067 1.87434 10.2002 1.875 10.5834C1.87418 10.9667 1.95444 11.3463 2.1112 11.7005C2.26795 12.0547 2.49811 12.3765 2.78845 12.6475C3.0788 12.9185 3.42363 13.1333 3.80314 13.2796C4.18265 13.4259 4.58939 13.5008 5 13.5001Z" fill="white"/>
</svg>
