<svg width="27" height="27" viewBox="0 0 27 27" fill="none" xmlns="http://www.w3.org/2000/svg">
<path fill-rule="evenodd" clip-rule="evenodd" d="M16.7687 1.23676L24.0635 6.62492C25.4693 7.64235 26.3058 9.26914 26.3154 11.0045V20.7585C26.2251 23.8861 23.6272 26.3544 20.499 26.2848H5.89569C2.76217 26.3622 0.15577 23.8916 0.0654297 20.7585V11.0045C0.0750449 9.26914 0.911536 7.64235 2.3174 6.62492L9.61214 1.23676C11.742 -0.325013 14.6388 -0.325013 16.7687 1.23676ZM6.97333 20.4407H19.4075C19.9798 20.4407 20.4437 19.9768 20.4437 19.4045C20.4437 18.8323 19.9798 18.3683 19.4075 18.3683H6.97333C6.40106 18.3683 5.93714 18.8323 5.93714 19.4045C5.93714 19.9768 6.40106 20.4407 6.97333 20.4407Z" fill="white"/>
</svg>
