<svg width="80" height="80" viewBox="0 0 80 80" fill="none" xmlns="http://www.w3.org/2000/svg">
<g filter="url(#filter0_d_817_4623)">
<path d="M75.8464 35.9312C75.8464 55.7449 59.7842 71.8071 39.9705 71.8071C20.1567 71.8071 4.09448 55.7449 4.09448 35.9312C4.09448 16.1174 20.1567 0.0551758 39.9705 0.0551758C59.7842 0.0551758 75.8464 16.1174 75.8464 35.9312Z" fill="#187992"/>
</g>
<circle cx="26.2098" cy="26.1021" r="4.42307" fill="#FCF4E1"/>
<ellipse cx="53.7312" cy="26.1021" rx="4.42307" ry="4.42307" fill="#FCF4E1"/>
<path d="M51.451 40.0365C52.7582 40.2187 53.8072 41.3696 53.3756 42.617C53.2051 43.1098 52.974 43.6116 52.6837 44.2248C51.9921 45.6856 50.9785 47.013 49.7007 48.131C48.4229 49.2491 46.906 50.136 45.2365 50.7411C43.5669 51.3462 41.7776 51.6576 39.9705 51.6576C38.1634 51.6576 36.374 51.3462 34.7045 50.7411C33.035 50.136 31.518 49.2491 30.2402 48.131C28.9624 47.013 27.9488 45.6856 27.2573 44.2248C26.9751 43.6286 26.7078 43.0968 26.4903 42.5687C25.9443 41.2428 27.0591 40.0113 28.4875 39.8845L28.5794 39.8764C30.149 39.737 31.4708 41.029 32.1451 42.4533V42.4533C32.5708 43.3525 33.1947 44.1695 33.9812 44.8577C34.7677 45.5459 35.7015 46.0918 36.7291 46.4643C37.7567 46.8367 38.8582 47.0284 39.9705 47.0284C41.0828 47.0284 42.1842 46.8367 43.2119 46.4643C44.2395 46.0918 45.1733 45.5459 45.9598 44.8577C46.7463 44.1695 47.3702 43.3525 47.7959 42.4533V42.4533C48.4589 41.0527 49.8103 39.8079 51.3451 40.0218L51.451 40.0365Z" fill="#FCF4E1"/>
<defs>
<filter id="filter0_d_817_4623" x="0.0944824" y="0.0551758" width="79.752" height="79.752" filterUnits="userSpaceOnUse" color-interpolation-filters="sRGB">
<feFlood flood-opacity="0" result="BackgroundImageFix"/>
<feColorMatrix in="SourceAlpha" type="matrix" values="0 0 0 0 0 0 0 0 0 0 0 0 0 0 0 0 0 0 127 0" result="hardAlpha"/>
<feOffset dy="4"/>
<feGaussianBlur stdDeviation="2"/>
<feComposite in2="hardAlpha" operator="out"/>
<feColorMatrix type="matrix" values="0 0 0 0 0 0 0 0 0 0 0 0 0 0 0 0 0 0 0.25 0"/>
<feBlend mode="normal" in2="BackgroundImageFix" result="effect1_dropShadow_817_4623"/>
<feBlend mode="normal" in="SourceGraphic" in2="effect1_dropShadow_817_4623" result="shape"/>
</filter>
</defs>
</svg>
