<svg width="655" height="359" viewBox="0 0 655 359" fill="none" xmlns="http://www.w3.org/2000/svg">
<g opacity="0.7" filter="url(#filter0_d_388_4493)">
<path d="M413.587 281.357L417.244 273.987C417.45 273.573 417.557 273.116 417.557 272.653V255.8C417.557 252.441 412.881 251.62 411.736 254.778L410.928 257.009C410.697 257.646 410.257 258.186 409.68 258.542L402.158 263.174C401.141 263.8 400.592 264.97 400.761 266.152L402.799 280.447C403.01 281.925 404.276 283.024 405.769 283.024H410.9C412.039 283.024 413.08 282.378 413.587 281.357Z" fill="#FFD500" stroke="#123012" stroke-width="3"/>
<path d="M141.302 156.147H142.674C145.194 156.147 146.591 153.227 145.01 151.265L136.433 140.617C135.489 139.445 133.809 139.184 132.554 140.013L129.931 141.746C128.3 142.824 129.063 145.362 131.018 145.362C131.653 145.362 132.249 145.668 132.62 146.184L138.864 154.895C139.427 155.681 140.335 156.147 141.302 156.147Z" fill="#FE4451" stroke="#2F090F" stroke-width="3"/>
<path d="M392.416 191.97L340.148 135.715C339.017 134.498 337.113 134.432 335.9 135.567L331.415 139.766C330.215 140.889 328.334 140.838 327.198 139.651L317.666 129.697C317.1 129.106 316.317 128.772 315.499 128.772H285.403C284.592 128.772 283.815 129.101 283.25 129.683L255.961 157.825C255.418 158.385 255.115 159.134 255.115 159.914V185.04C255.115 185.869 255.458 186.662 256.064 187.229L282.239 211.751C283.327 212.77 284.997 212.836 286.162 211.906L296.719 203.479C298.684 201.91 301.59 203.309 301.59 205.824V220.057C301.59 220.848 301.903 221.608 302.461 222.17L311.829 231.609C312.386 232.171 312.699 232.931 312.699 233.722V267.353C312.699 268.14 313.009 268.895 313.561 269.456L337.596 293.888C338.199 294.501 339.036 294.826 339.895 294.78L363.603 293.513C365.196 293.428 366.443 292.112 366.443 290.517V277.09C366.443 276.29 366.763 275.523 367.331 274.959L380.085 262.319C380.653 261.755 380.973 260.988 380.973 260.188V240.563C380.973 239.789 381.272 239.045 381.808 238.486L408.006 211.185C408.542 210.627 408.842 209.882 408.842 209.108V190.178C408.842 187.844 406.295 186.404 404.296 187.607L396.16 192.499C394.944 193.23 393.382 193.009 392.416 191.97Z" fill="#FFD500" stroke="#123012" stroke-width="3"/>
<path d="M158.006 326.865L178.853 347.872C179.99 349.017 181.863 348.945 182.909 347.716C183.333 347.218 183.565 346.585 183.565 345.93V335.77C183.565 334.959 183.237 334.182 182.654 333.617L178.627 329.709C178.045 329.144 177.716 328.368 177.716 327.556V307.158C177.716 305.501 179.059 304.158 180.716 304.158H186.423C187.228 304.158 187.999 303.835 188.563 303.26L207.619 283.859C208.17 283.298 208.479 282.543 208.479 281.757V267.2C208.479 266.404 208.795 265.64 209.358 265.078L234.246 240.203C234.809 239.641 235.125 238.877 235.125 238.081V224.385C235.125 223.606 234.822 222.858 234.28 222.298L218.245 205.746C217.68 205.163 216.902 204.834 216.09 204.834H204.312C203.512 204.834 202.746 204.515 202.183 203.947L174.48 176.033C173.917 175.465 173.15 175.146 172.351 175.146H149.149C148.303 175.146 147.496 175.503 146.927 176.129L132.351 192.188C131.85 192.74 131.573 193.459 131.573 194.204V226.315C131.573 227.098 131.879 227.85 132.425 228.411L156.283 252.858C156.83 253.418 157.136 254.17 157.136 254.953V324.752C157.136 325.543 157.449 326.303 158.006 326.865Z" fill="#FBA324" stroke="#3D1E00" stroke-width="3"/>
<path d="M110.59 173.027H119.148C120.442 173.027 121.59 172.198 121.996 170.97L122.235 170.246C122.582 169.198 122.325 168.044 121.566 167.242L106.14 150.945C105.613 150.388 105.319 149.65 105.319 148.883V131.114C105.319 129.489 106.613 128.16 108.238 128.115L135.477 127.373C136.246 127.352 136.979 127.036 137.522 126.491L172.661 91.1841C173.224 90.6185 173.989 90.3004 174.787 90.3004H193.754C194.64 90.3004 195.48 89.9089 196.05 89.2308L208.734 74.1426C209.693 73.0011 209.669 71.3279 208.676 70.2151L194.276 54.0734C193.264 52.9396 193.26 51.2285 194.266 50.0899L205.318 37.5816C206.341 36.4238 206.317 34.6785 205.264 33.5488L188.096 15.1451C187.528 14.5369 186.734 14.1915 185.902 14.1915H127.878C127.068 14.1915 126.293 14.5185 125.729 15.0981L116.16 24.9201C115.596 25.4998 114.821 25.8267 114.011 25.8267H32.4705C31.6382 25.8267 30.8434 26.1724 30.2759 26.7813L7.04201 51.7096C5.91368 52.9202 5.97879 54.8159 7.18751 55.9462L17.5696 65.6551C18.7656 66.7736 20.6376 66.7263 21.7757 65.5489L34.7304 52.1469C35.2957 51.5621 36.0741 51.2319 36.8874 51.2319H52.4245C54.0813 51.2319 55.4245 52.5751 55.4245 54.2319V60.8293C55.4245 61.7152 55.816 62.5557 56.494 63.1257L72.1889 76.3195C73.5005 77.422 73.6238 79.3974 72.4594 80.6544L63.533 90.2917C63.0193 90.8463 62.7339 91.5743 62.7339 92.3303V125.033C62.7339 125.827 63.0487 126.589 63.6093 127.151L108.466 172.146C109.028 172.71 109.793 173.027 110.59 173.027Z" fill="#FE4451" stroke="#2F090F" stroke-width="3"/>
<path d="M229.963 50.8296L240.114 41.5371C240.667 41.0307 241.39 40.7499 242.14 40.7499H261.172C262.013 40.7499 262.815 40.3968 263.383 39.7768L273.764 28.4498C274.271 27.8966 274.552 27.1734 274.552 26.4229V16.7845C274.552 15.9853 274.233 15.2191 273.666 14.6559L261.8 2.87141C261.238 2.31325 260.478 2 259.686 2H216.104C215.295 2 214.52 2.32701 213.955 2.90677L206.062 11.0102C205.11 11.9882 204.938 13.486 205.644 14.6546L206.315 15.7667C206.859 16.6659 207.833 17.2155 208.883 17.2155H216.1C217.757 17.2155 219.1 18.5586 219.1 20.2155V43.0771C219.1 43.9001 219.438 44.6868 220.035 45.2533L225.873 50.7929C227.015 51.8771 228.802 51.8931 229.963 50.8296Z" fill="white" stroke="#424242" stroke-width="3"/>
<path d="M275.538 79.6411L281.704 71.6885C282.236 71.002 282.444 70.1184 282.275 69.2663L279.47 55.1336C279.191 53.7293 277.959 52.7177 276.528 52.7177H271.195C269.02 52.7177 267.568 54.9598 268.457 56.9446L271.016 62.6533C271.347 63.3925 271.365 64.2342 271.066 64.9871L267.378 74.2776C266.893 75.4996 267.26 76.895 268.284 77.7201L271.284 80.1385C272.591 81.1923 274.509 80.9681 275.538 79.6411Z" fill="#187992" stroke="#071221" stroke-width="3"/>
<path d="M288.989 79.8298L302.931 99.4164C303.967 100.871 306.036 101.105 307.37 99.918L318.812 89.738C319.361 89.2493 320.071 88.9793 320.806 88.9793H335.802C336.591 88.9793 337.349 89.2904 337.91 89.8451L356.758 108.465C357.32 109.02 358.078 109.331 358.867 109.331H368.908C369.707 109.331 370.474 109.65 371.037 110.218L374.093 113.297C375.094 114.306 375.25 115.879 374.465 117.065L373.608 118.361C373.206 118.968 373.039 119.701 373.137 120.422L375.661 138.933C375.759 139.647 376.11 140.302 376.65 140.778L404.838 165.623C406.021 166.666 407.81 166.614 408.932 165.505L433.797 140.907C434.358 140.352 435.116 140.04 435.906 140.04H451.935C453.592 140.04 454.935 141.383 454.935 143.04V162.709C454.935 163.624 455.353 164.489 456.069 165.058L474.003 179.305C475.969 180.867 478.869 179.467 478.869 176.956V163.512C478.869 162.701 479.198 161.924 479.78 161.36L490.63 150.828C491.775 149.716 493.59 149.696 494.76 150.782L506.15 161.353C506.762 161.921 507.109 162.717 507.109 163.552V195.698C507.109 196.575 507.493 197.408 508.159 197.978L528.416 215.303C530.312 216.924 533.243 215.658 533.363 213.167L534.414 191.215C534.446 190.55 534.698 189.914 535.13 189.408L549.33 172.807C550.314 171.656 550.286 169.953 549.266 168.835L541.418 160.232C540.355 159.066 540.376 157.275 541.468 156.135L600.96 94.0343C602.081 92.8634 602.07 91.013 600.933 89.8564L578.401 66.9259C577.837 66.3519 577.066 66.0285 576.261 66.0285H562.412C561.554 66.0285 560.743 65.6419 560.202 64.9762C559.368 63.9485 559.352 62.4812 560.164 61.4357L564.715 55.5762C565.283 54.8445 566.157 54.4164 567.084 54.4164H583.84C584.581 54.4164 585.296 54.6904 585.846 55.1856L599.3 67.2826C600.502 68.3628 602.343 68.2977 603.465 67.1353L621.978 47.9561C623.102 46.7914 623.1 44.9447 621.972 43.7831L602.337 23.5531C601.772 22.9711 600.996 22.6426 600.185 22.6426H544.314C543.52 22.6426 542.758 22.3279 542.196 21.7676L532.544 12.1493C531.988 11.5957 531.238 11.2816 530.453 11.2745L407.104 10.1491C406.272 10.1415 405.475 10.4793 404.902 11.0819L392.251 24.3893C391.684 24.985 390.898 25.3223 390.076 25.3223H340.943C340.145 25.3223 339.379 25.6405 338.816 26.2065L289.306 75.9743C288.276 77.0106 288.142 78.639 288.989 79.8298Z" fill="#187992" stroke="#071221" stroke-width="3"/>
<path d="M566.502 289.353H581.393C582.127 289.353 582.836 289.623 583.385 290.11L602.865 307.41C604.063 308.474 605.886 308.409 607.005 307.262L636.719 276.794C637.266 276.234 637.572 275.482 637.572 274.699V251.673C637.572 250.858 637.24 250.077 636.652 249.512L618.28 231.825C617.135 230.724 615.331 230.705 614.164 231.783L603.392 241.733C602.838 242.245 602.111 242.529 601.356 242.529H575.699C574.95 242.529 574.228 242.809 573.675 243.315L554.942 260.443C554.32 261.012 553.966 261.815 553.966 262.657V292.621C553.966 295.183 556.971 296.566 558.918 294.899L564.55 290.075C565.094 289.609 565.786 289.353 566.502 289.353Z" fill="#D9D9D9" stroke="#1F0B1F" stroke-width="3"/>
<path d="M633.962 327.263L643.35 314.17C643.715 313.66 643.912 313.049 643.912 312.421V307.43C643.912 306.781 644.123 306.149 644.512 305.63L648.394 300.453C649.309 299.233 649.163 297.521 648.054 296.473L644.765 293.365C643.164 291.852 640.533 292.522 639.852 294.617L636.343 305.401C636.126 306.066 636.149 306.786 636.407 307.436L637.435 310.026C637.823 311.005 637.67 312.117 637.03 312.954L628.826 323.694C627.318 325.668 628.726 328.515 631.21 328.515H631.524C632.491 328.515 633.398 328.049 633.962 327.263Z" fill="#D9D9D9" stroke="#1F0B1F" stroke-width="3"/>
<path d="M575.638 147.928V150.861C575.638 153.19 578.177 154.631 580.177 153.436L588.766 148.306C588.967 148.186 589.182 148.089 589.407 148.019L603.46 143.615C604.61 143.254 605.433 142.24 605.549 141.04L608.071 114.899C608.276 112.775 606.261 111.123 604.218 111.739L601.221 112.644C600.238 112.941 599.475 113.72 599.199 114.709L594.488 131.581C594.31 132.221 593.924 132.783 593.392 133.179L576.845 145.523C576.086 146.09 575.638 146.981 575.638 147.928Z" fill="#187992" stroke="black" stroke-width="3"/>
</g>
<defs>
<filter id="filter0_d_388_4493" x="0.736572" y="0.5" width="653.757" height="357.686" filterUnits="userSpaceOnUse" color-interpolation-filters="sRGB">
<feFlood flood-opacity="0" result="BackgroundImageFix"/>
<feColorMatrix in="SourceAlpha" type="matrix" values="0 0 0 0 0 0 0 0 0 0 0 0 0 0 0 0 0 0 127 0" result="hardAlpha"/>
<feOffset dy="4"/>
<feGaussianBlur stdDeviation="2"/>
<feComposite in2="hardAlpha" operator="out"/>
<feColorMatrix type="matrix" values="0 0 0 0 0 0 0 0 0 0 0 0 0 0 0 0 0 0 0.25 0"/>
<feBlend mode="normal" in2="BackgroundImageFix" result="effect1_dropShadow_388_4493"/>
<feBlend mode="normal" in="SourceGraphic" in2="effect1_dropShadow_388_4493" result="shape"/>
</filter>
</defs>
</svg>
