<svg width="81" height="80" viewBox="0 0 81 80" fill="none" xmlns="http://www.w3.org/2000/svg">
<g filter="url(#filter0_d_817_4613)">
<path d="M76.3818 35.9312C76.3818 55.7449 60.3196 71.8071 40.5059 71.8071C20.6921 71.8071 4.62988 55.7449 4.62988 35.9312C4.62988 16.1174 20.6921 0.0551758 40.5059 0.0551758C60.3196 0.0551758 76.3818 16.1174 76.3818 35.9312Z" fill="#FBA324"/>
</g>
<ellipse cx="4.42307" cy="4.42307" rx="4.42307" ry="4.42307" transform="matrix(-1 0 0 1 58.6896 22.1705)" fill="#FCF4E1"/>
<circle cx="4.42307" cy="4.42307" r="4.42307" transform="matrix(-1 0 0 1 31.1683 22.1705)" fill="#FCF4E1"/>
<path d="M29.5168 46.5693C28.2096 46.3872 27.1606 45.2362 27.5922 43.9889C27.7627 43.496 27.9938 42.9942 28.2841 42.381C28.9756 40.9202 29.9892 39.5929 31.267 38.4748C32.5448 37.3567 34.0618 36.4698 35.7313 35.8647C37.4008 35.2596 39.1902 34.9482 40.9973 34.9482C42.8044 34.9482 44.5937 35.2596 46.2633 35.8647C47.9328 36.4698 49.4497 37.3567 50.7275 38.4748C52.0053 39.5929 53.0189 40.9202 53.7105 42.381C53.9927 42.9772 54.2599 43.509 54.4774 44.0371C55.0235 45.363 53.9086 46.5945 52.4803 46.7213L52.3884 46.7295C50.8188 46.8688 49.4969 45.5769 48.8227 44.1526V44.1526C48.397 43.2534 47.7731 42.4363 46.9866 41.7481C46.2001 41.0599 45.2663 40.514 44.2387 40.1415C43.211 39.7691 42.1096 39.5774 40.9973 39.5774C39.885 39.5774 38.7835 39.7691 37.7559 40.1415C36.7283 40.514 35.7945 41.0599 35.008 41.7481C34.2215 42.4363 33.5976 43.2534 33.1719 44.1526V44.1526C32.5089 45.5531 31.1575 46.7979 29.6227 46.5841L29.5168 46.5693Z" fill="#FCF4E1"/>
<defs>
<filter id="filter0_d_817_4613" x="0.629883" y="0.0551758" width="79.752" height="79.752" filterUnits="userSpaceOnUse" color-interpolation-filters="sRGB">
<feFlood flood-opacity="0" result="BackgroundImageFix"/>
<feColorMatrix in="SourceAlpha" type="matrix" values="0 0 0 0 0 0 0 0 0 0 0 0 0 0 0 0 0 0 127 0" result="hardAlpha"/>
<feOffset dy="4"/>
<feGaussianBlur stdDeviation="2"/>
<feComposite in2="hardAlpha" operator="out"/>
<feColorMatrix type="matrix" values="0 0 0 0 0 0 0 0 0 0 0 0 0 0 0 0 0 0 0.25 0"/>
<feBlend mode="normal" in2="BackgroundImageFix" result="effect1_dropShadow_817_4613"/>
<feBlend mode="normal" in="SourceGraphic" in2="effect1_dropShadow_817_4613" result="shape"/>
</filter>
</defs>
</svg>
