<svg width="81" height="80" viewBox="0 0 81 80" fill="none" xmlns="http://www.w3.org/2000/svg">
<g filter="url(#filter0_d_817_4629)">
<path d="M76.0787 35.9312C76.0787 55.7449 60.0165 71.8071 40.2028 71.8071C20.389 71.8071 4.32678 55.7449 4.32678 35.9312C4.32678 16.1174 20.389 0.0551758 40.2028 0.0551758C60.0165 0.0551758 76.0787 16.1174 76.0787 35.9312Z" fill="#1E8A70"/>
</g>
<circle cx="26.4421" cy="26.5936" r="4.42307" fill="#FCF4E1"/>
<ellipse cx="53.9635" cy="26.5936" rx="4.42307" ry="4.42307" fill="#FCF4E1"/>
<path d="M26.4421 41.8286C26.4421 40.4715 27.5452 39.3713 28.9023 39.3713C37.3763 39.3713 43.0293 39.3713 51.5033 39.3713C52.8604 39.3713 53.9634 40.4715 53.9634 41.8286V41.8286C53.9634 43.1857 52.8604 44.2859 51.5033 44.2859C43.0293 44.2859 37.3763 44.2859 28.9023 44.2859C27.5452 44.2859 26.4421 43.1857 26.4421 41.8286V41.8286Z" fill="#FCF4E1"/>
<path d="M51.6833 40.528C52.9905 40.7101 54.0395 41.8611 53.6079 43.1084C53.4374 43.6012 53.2063 44.103 52.916 44.7162C52.2244 46.1771 51.2108 47.5044 49.933 48.6225C48.6552 49.7406 47.1383 50.6275 45.4688 51.2326C43.7992 51.8377 42.0099 52.1491 40.2028 52.1491C38.3957 52.1491 36.6063 51.8377 34.9368 51.2326C33.2673 50.6275 31.7503 49.7406 30.4725 48.6225C29.1947 47.5044 28.1811 46.1771 27.4896 44.7162C27.2074 44.1201 26.9401 43.5883 26.7226 43.0602C26.1766 41.7343 27.2914 40.5028 28.7198 40.376L28.8117 40.3678C30.3813 40.2285 31.7031 41.5204 32.3774 42.9447V42.9447C32.8031 43.8439 33.5188 42.2565 34.3054 42.9447C35.0919 43.6329 35.4893 42.5723 36.5169 42.9447C37.5445 43.3172 38.8447 43.303 39.9571 43.303C41.0694 43.303 41.8781 43.6754 42.9058 43.303C43.9334 42.9305 44.6822 43.6329 45.4688 42.9447C46.2553 42.2565 47.6025 43.8439 48.0282 42.9447V42.9447C48.6912 41.5441 50.0426 40.2994 51.5774 40.5132L51.6833 40.528Z" fill="#FCF4E1"/>
<defs>
<filter id="filter0_d_817_4629" x="0.326782" y="0.0551758" width="79.752" height="79.752" filterUnits="userSpaceOnUse" color-interpolation-filters="sRGB">
<feFlood flood-opacity="0" result="BackgroundImageFix"/>
<feColorMatrix in="SourceAlpha" type="matrix" values="0 0 0 0 0 0 0 0 0 0 0 0 0 0 0 0 0 0 127 0" result="hardAlpha"/>
<feOffset dy="4"/>
<feGaussianBlur stdDeviation="2"/>
<feComposite in2="hardAlpha" operator="out"/>
<feColorMatrix type="matrix" values="0 0 0 0 0 0 0 0 0 0 0 0 0 0 0 0 0 0 0.25 0"/>
<feBlend mode="normal" in2="BackgroundImageFix" result="effect1_dropShadow_817_4629"/>
<feBlend mode="normal" in="SourceGraphic" in2="effect1_dropShadow_817_4629" result="shape"/>
</filter>
</defs>
</svg>
