<svg width="50" height="50" viewBox="0 0 50 50" fill="none" xmlns="http://www.w3.org/2000/svg">
<path d="M45.166 25.0001C45.166 36.1456 36.1035 45.1808 24.9243 45.1808C13.7451 45.1808 4.68262 36.1456 4.68262 25.0001C4.68262 13.8546 13.7451 4.81934 24.9243 4.81934C36.1035 4.81934 45.166 13.8546 45.166 25.0001ZM10.8273 25.0001C10.8273 32.7621 17.1388 39.0546 24.9243 39.0546C32.7098 39.0546 39.0213 32.7621 39.0213 25.0001C39.0213 17.238 32.7098 10.9456 24.9243 10.9456C17.1388 10.9456 10.8273 17.238 10.8273 25.0001Z" fill="url(#paint0_radial_165_977)"/>
<path d="M0 21.6868H5.58912V28.3133H0V21.6868Z" fill="#FE4451"/>
<rect x="44.4106" y="21.6868" width="5.58912" height="6.62651" fill="#FE4451"/>
<rect width="5.58141" height="6.6357" transform="matrix(0.736715 0.676203 -0.678415 0.734679 41.0576 35.8433)" fill="#FE4451"/>
<rect x="21.6011" y="50" width="5.57229" height="6.64653" transform="rotate(-90 21.6011 50)" fill="#FE4451"/>
<rect width="5.58141" height="6.6357" transform="matrix(-0.736715 0.676203 0.678415 0.734679 7.88818 35.8433)" fill="#FE4451"/>
<rect width="5.58141" height="6.6357" transform="matrix(0.736715 -0.676203 -0.678415 -0.734679 41.0576 14.1567)" fill="#FE4451"/>
<rect width="5.57229" height="6.64653" transform="matrix(0 1 1 0 21.6011 0)" fill="#FE4451"/>
<rect width="5.58141" height="6.6357" transform="matrix(-0.736715 -0.676203 0.678415 -0.734679 7.88818 14.1567)" fill="#FE4451"/>
<ellipse cx="24.9243" cy="25" rx="12.3867" ry="12.3494" fill="#13233A"/>
<mask id="mask0_165_977" style="mask-type:alpha" maskUnits="userSpaceOnUse" x="12" y="12" width="26" height="26">
<path d="M37.311 25C37.311 31.8204 31.7653 37.3494 24.9243 37.3494C18.0833 37.3494 12.5376 31.8204 12.5376 25C12.5376 18.1796 18.0833 12.6506 24.9243 12.6506C31.7653 12.6506 37.311 18.1796 37.311 25Z" fill="#13233A"/>
</mask>
<g mask="url(#mask0_165_977)">
<path d="M11.856 28.3883C11.856 28.2272 11.9195 28.0667 12.005 27.9218C12 27.8729 12.0254 27.8427 12.0673 27.8242C12.1617 27.7826 12.3403 27.8009 12.4452 27.8009C12.7025 27.8009 12.9143 27.7044 13.1588 27.6856C13.6222 27.6501 14.0603 27.3916 14.5292 27.3331C14.8854 27.2888 15.2281 27.1996 15.5789 27.1265C16.0722 27.0235 16.6211 26.8239 16.8402 26.3323C16.8923 26.2154 16.9199 26.1169 17.0606 26.1169C17.1695 26.1169 17.1475 26.1783 17.2374 26.2257C17.3061 26.262 17.3649 26.3245 17.4338 26.3606C17.5424 26.4176 17.6704 26.396 17.7677 26.4498C17.9036 26.5251 18.0473 26.6857 18.1648 26.7871C18.3501 26.9468 18.5729 27.0545 18.5729 27.3136C18.5729 27.5149 18.7957 27.7636 18.9264 27.9184C19.0736 28.0926 18.9261 28.3244 18.8304 28.4471C18.7735 28.5201 18.7818 28.6492 18.8105 28.7802C18.8988 28.792 18.8872 28.9338 18.8872 28.9954C18.8872 29.0186 18.8892 29.041 18.8929 29.0627C18.9028 29.0928 18.9115 29.1194 18.9177 29.1411C18.92 29.1491 18.9221 29.1571 18.9241 29.1652C18.9983 29.3376 19.162 29.4746 19.2036 29.6611C19.2201 29.7353 19.3586 29.907 19.4371 29.9157C19.4538 29.9175 19.6712 30.013 19.5767 29.9853C19.3984 29.933 19.1044 29.7176 19.0137 29.5458C18.9511 29.4272 18.9544 29.2896 18.9241 29.1652C18.91 29.1325 18.8991 29.0985 18.8929 29.0627C18.8671 28.984 18.8327 28.8815 18.8105 28.7802C18.8099 28.7801 18.8092 28.78 18.8086 28.78C18.7641 28.775 18.732 28.7779 18.73 28.8278C18.7211 29.0492 18.8031 29.1566 18.8457 29.3478C18.8901 29.5472 19.0769 29.7341 19.2581 29.8373C19.3696 29.9009 19.6503 30.1652 19.6728 30.3073C19.7111 30.5495 19.6444 30.5383 19.4196 30.6402C19.1744 30.7513 18.9665 30.8794 18.73 31.0035C18.5195 31.114 18.3191 31.1691 18.0928 31.2385C17.8736 31.3057 17.6127 31.1891 17.3945 31.2668C17.1412 31.357 17.1588 31.4769 17.1588 31.7171C17.1588 31.9545 17.2959 32.0485 17.353 32.248C17.3753 32.3256 17.4876 32.5004 17.5494 32.5569C17.6587 32.6568 17.7784 32.7896 17.8659 32.9094C18.0199 33.1206 18.2409 33.181 18.4245 33.3141C18.5069 33.3738 18.6439 33.2836 18.73 33.2836H19.1796C19.4416 33.2836 19.69 33.316 19.939 33.3924C20.1865 33.4683 20.3466 33.4569 20.5369 33.6361C20.6064 33.7015 20.6742 33.751 20.7552 33.8014C20.8348 33.851 20.9047 34.0162 20.9908 34.0864C21.2002 34.2572 21.2977 34.2627 21.5669 34.2627C21.6476 34.2627 21.7543 34.2303 21.8645 34.1825C21.8521 34.1693 21.8692 34.1556 21.943 34.1462C21.9644 34.1357 21.9857 34.1247 22.0068 34.1135C22.0394 34.0774 22.0608 34.0208 22.1081 33.9972C22.239 33.932 22.5319 33.7017 22.5991 33.5751C22.6994 33.3864 22.9611 33.2852 23.0094 33.0682C23.0585 32.8479 22.8849 32.5893 22.8239 32.3916C22.7874 32.2732 22.8152 32.1152 22.8152 31.9913C22.8152 31.9211 23.1287 32.0165 23.2298 32.0304C23.5125 32.0693 23.7871 32.0696 24.0722 32.0696C24.3016 32.0696 24.5012 32.1479 24.7312 32.1479C25.5 32.1479 26.2648 32.3437 27.0357 32.3437C27.7404 32.3437 26.9789 33.1008 26.9789 33.4185C26.9789 33.5583 27.5434 33.5969 27.6445 33.5969C27.8933 33.5969 28.0056 33.8349 28.1966 33.9407C28.3914 34.0486 28.4233 34.341 28.6898 34.341C28.7802 34.341 28.8879 34.3116 28.9429 34.2431C29.0127 34.1561 29.0023 34.04 29.0695 33.9581C29.1388 33.8736 29.0764 33.8319 29.2179 33.8319C29.3339 33.8319 29.429 33.8582 29.5321 33.871C29.7161 33.894 29.8405 34.2134 30.021 34.2648C30.0599 34.2759 30.1905 34.4381 30.2217 34.4781C30.3003 34.5787 30.442 34.5699 30.5316 34.6543C30.5995 34.7182 30.6952 34.7439 30.7498 34.8196C30.7982 34.8866 30.8036 35.0474 30.8502 35.0872C30.9319 35.157 30.981 35.3198 31.0248 35.4179C31.0381 35.4479 31.1453 35.6198 31.1623 35.6333C31.1859 35.6521 31.2605 35.8877 31.2605 35.927C31.2605 36.0705 31.2349 36.1351 31.1838 36.2638L31.1819 36.2686C31.1145 36.4387 31.046 36.6083 30.9768 36.7777C30.8977 36.9713 30.6814 37.1522 30.5556 37.3195C30.4575 37.45 30.399 37.5533 30.2566 37.6524C30.1538 37.7239 30.0775 37.7701 30.0384 37.8917C29.9567 38.1462 29.7668 38.3178 29.5278 38.4225C29.1207 38.6009 28.7378 38.6068 28.3188 38.7054C27.4046 38.9206 26.4018 38.7819 25.4775 38.6967C23.1363 38.4807 20.7581 37.968 18.61 37.0105C17.4851 36.5092 16.6325 35.6679 15.7142 34.8806C15.1192 34.3704 14.6513 33.6396 14.191 33.0095C13.9133 32.6294 13.7193 32.179 13.4839 31.7737C12.8714 30.719 11.856 29.668 11.856 28.3883Z" fill="#187992"/>
<path d="M12.8772 27.3701C12.5595 27.3701 12.3939 27.413 12.1898 27.6617C12.0299 27.8566 11.856 28.1217 11.856 28.3883C11.856 29.668 12.8714 30.719 13.4839 31.7737C13.7193 32.179 13.9133 32.6294 14.191 33.0095C14.6513 33.6396 15.1192 34.3704 15.7142 34.8806C16.6325 35.6679 17.4851 36.5092 18.61 37.0105C20.7581 37.968 23.1363 38.4807 25.4775 38.6967C26.4018 38.7819 27.4046 38.9206 28.3188 38.7054C28.7378 38.6068 29.1207 38.6009 29.5278 38.4225C29.7668 38.3178 29.9567 38.1462 30.0384 37.8917C30.0775 37.7701 30.1538 37.7239 30.2566 37.6524C30.399 37.5533 30.4575 37.45 30.5556 37.3195C30.6814 37.1522 30.8977 36.9713 30.9768 36.7777C31.046 36.6083 31.1145 36.4387 31.1819 36.2686C31.2343 36.1367 31.2605 36.0723 31.2605 35.927C31.2605 35.8877 31.1859 35.6521 31.1623 35.6333C31.1453 35.6198 31.0381 35.4479 31.0248 35.4179C30.981 35.3198 30.9319 35.157 30.8502 35.0872C30.8036 35.0474 30.7982 34.8866 30.7498 34.8196C30.6952 34.7439 30.5995 34.7182 30.5316 34.6543C30.442 34.5699 30.3003 34.5787 30.2217 34.4781C30.1905 34.4381 30.0599 34.2759 30.021 34.2648C29.8405 34.2134 29.7161 33.894 29.5321 33.871C29.429 33.8582 29.3339 33.8319 29.2179 33.8319C29.0764 33.8319 29.1388 33.8736 29.0695 33.9581C29.0023 34.04 29.0127 34.1561 28.9429 34.2431C28.8879 34.3116 28.7802 34.341 28.6898 34.341C28.4233 34.341 28.3914 34.0486 28.1966 33.9407C28.0056 33.8349 27.8933 33.5969 27.6445 33.5969C27.5434 33.5969 26.9789 33.5583 26.9789 33.4185C26.9789 33.1008 27.7404 32.3437 27.0357 32.3437C26.2648 32.3437 25.5 32.1479 24.7312 32.1479C24.5012 32.1479 24.3016 32.0696 24.0722 32.0696C23.7871 32.0696 23.5125 32.0693 23.2298 32.0304C23.1287 32.0165 22.8152 31.9211 22.8152 31.9913C22.8152 32.1152 22.7874 32.2732 22.8239 32.3916C22.8849 32.5893 23.0585 32.8479 23.0094 33.0682C22.9611 33.2852 22.6994 33.3864 22.5991 33.5751C22.5319 33.7017 22.239 33.932 22.1081 33.9972C22.039 34.0317 22.0252 34.1365 21.951 34.1452C21.7465 34.1692 21.94 34.2235 22.0383 34.2235C22.3032 34.2235 22.6439 34.1202 22.8348 33.9298C22.8797 33.885 23.0123 33.7743 22.9679 33.697C22.93 33.6308 22.4031 33.8354 22.3416 33.8906C22.1848 34.0313 21.7826 34.2627 21.5669 34.2627C21.2977 34.2627 21.2002 34.2572 20.9908 34.0864C20.9047 34.0162 20.8348 33.851 20.7552 33.8014C20.6742 33.751 20.6064 33.7015 20.5369 33.6361C20.3466 33.4569 20.1865 33.4683 19.939 33.3924C19.69 33.316 19.4416 33.2836 19.1796 33.2836C19.0297 33.2836 18.8799 33.2836 18.73 33.2836C18.6439 33.2836 18.5069 33.3738 18.4245 33.3141C18.2409 33.181 18.0199 33.1206 17.8659 32.9094C17.7784 32.7896 17.6587 32.6568 17.5494 32.5569C17.4876 32.5004 17.3753 32.3256 17.353 32.248C17.2959 32.0485 17.1588 31.9545 17.1588 31.7171C17.1588 31.4769 17.1412 31.357 17.3945 31.2668C17.6127 31.1891 17.8736 31.3057 18.0928 31.2385C18.3191 31.1691 18.5195 31.114 18.73 31.0035C18.9665 30.8794 19.1744 30.7513 19.4196 30.6402C19.6444 30.5383 19.7111 30.5495 19.6728 30.3073C19.6503 30.1652 19.3696 29.9009 19.2581 29.8373C19.0769 29.7341 18.8901 29.5472 18.8457 29.3478C18.8031 29.1566 18.7211 29.0492 18.73 28.8278C18.732 28.7779 18.7641 28.775 18.8086 28.78C18.899 28.79 18.8872 28.9334 18.8872 28.9954C18.8872 29.2587 19.1493 29.4177 19.2036 29.6611C19.2201 29.7353 19.3586 29.907 19.4371 29.9157C19.4538 29.9175 19.6712 30.013 19.5767 29.9853C19.3984 29.933 19.1044 29.7176 19.0137 29.5458C18.9471 29.4195 18.9551 29.2717 18.9177 29.1411C18.8742 28.9893 18.7126 28.5981 18.8304 28.4471C18.9261 28.3244 19.0736 28.0926 18.9264 27.9184C18.7957 27.7636 18.5729 27.5149 18.5729 27.3136C18.5729 27.0545 18.3501 26.9468 18.1648 26.7871C18.0473 26.6857 17.9036 26.5251 17.7677 26.4498C17.6704 26.396 17.5424 26.4176 17.4338 26.3606C17.3649 26.3245 17.3061 26.262 17.2374 26.2257C17.1475 26.1783 17.1695 26.1169 17.0606 26.1169C16.9199 26.1169 16.8923 26.2154 16.8402 26.3323C16.6211 26.8239 16.0722 27.0235 15.5789 27.1265C15.2281 27.1996 14.8854 27.2888 14.5292 27.3331C14.0603 27.3916 13.6222 27.6501 13.1588 27.6856C12.9143 27.7044 12.7025 27.8009 12.4452 27.8009C12.2833 27.8009 11.9461 27.7572 12.0131 27.9576" stroke="#187992" stroke-width="3" stroke-linecap="round"/>
<path d="M20.2613 13.8258C20.2796 13.8236 20.2982 13.8207 20.317 13.8168C20.588 13.7616 20.8582 13.6852 21.138 13.6666C21.2948 13.6561 21.4488 13.6498 21.5991 13.5971C21.6889 13.5655 22.1171 13.4994 21.8286 13.5029C21.5797 13.5059 21.3213 13.5155 21.0622 13.5332C21.0357 13.5394 21.0092 13.5457 20.9828 13.5522C20.6473 13.635 20.3319 13.6374 19.9931 13.6823C19.7531 13.7141 19.5309 13.7854 19.2868 13.7854C19.0172 13.7854 19.8172 13.6883 20.0831 13.6441C20.3982 13.5918 20.7308 13.5559 21.0622 13.5332C21.4744 13.4377 21.8963 13.3853 22.3115 13.2985C22.3416 13.2864 22.3783 13.2791 22.419 13.2752C22.4878 13.2596 22.5565 13.243 22.6248 13.2248C22.6998 13.2049 22.7752 13.1923 22.8503 13.1785C22.7888 13.1794 22.7272 13.1799 22.6653 13.1799C22.5791 13.1799 22.2874 13.2102 22.305 13.1672C22.1966 13.18 22.0883 13.1938 21.9801 13.2081C21.9161 13.2176 21.8521 13.2276 21.7881 13.2382C21.4765 13.29 21.1679 13.3581 20.8569 13.4132C20.7672 13.429 20.6011 13.4852 20.506 13.4535C20.4548 13.4365 20.6061 13.385 20.6162 13.384C21.0726 13.3385 21.5256 13.2684 21.9801 13.2081C22.0889 13.192 22.1977 13.1776 22.3063 13.1646C22.3137 13.1532 22.3408 13.1372 22.3954 13.1149C22.8092 12.9461 23.1802 12.8974 23.628 12.8974C24.3313 12.8974 25.0854 12.7593 25.7873 12.8593C25.9049 12.876 26.0222 12.9067 26.1398 12.9367C26.1724 12.9373 26.2049 12.9377 26.2372 12.9377C26.4129 12.9377 26.5772 13.0185 26.7433 13.0185C26.7704 13.0185 26.7963 13.0188 26.8215 13.0197C26.7541 13.0017 26.6921 12.9742 26.63 12.9464C26.4546 12.9025 26.2781 12.8602 26.0955 12.8368C26.0372 12.8294 25.5828 12.8167 25.8121 12.8167H26.0438C26.1723 12.8167 26.2681 12.8388 26.3812 12.8593C26.472 12.8757 26.5511 12.9112 26.63 12.9464C26.7904 12.9866 26.9499 13.0281 27.1124 13.0577C27.1302 13.0584 27.1481 13.0588 27.1662 13.0588C27.2304 13.0588 27.5319 13.0817 27.5148 13.0902C27.5087 13.0933 27.5025 13.0961 27.4962 13.0989C27.5084 13.0991 27.5206 13.0992 27.5328 13.0992C27.8048 13.0992 28.0986 13.2013 28.3515 13.2921C28.4662 13.3332 28.5462 13.3687 28.6485 13.4244C28.8011 13.5074 28.9545 13.51 29.1118 13.5926C29.2697 13.6754 29.4254 13.7634 29.5977 13.8258C29.802 13.8999 29.9622 14.0688 30.1555 14.1487C30.266 14.1944 30.3693 14.2756 30.4868 14.3029C30.3977 14.238 30.3174 14.17 30.2252 14.1061C30.1143 14.0292 30.0359 13.9032 29.9216 13.8348C29.8631 13.7998 29.7794 13.7787 29.7281 13.7361C29.6188 13.6453 29.4604 13.6127 29.3525 13.523C29.3065 13.4848 29.2099 13.4912 29.1523 13.4625C29.0115 13.3923 29.5047 13.5229 29.5707 13.5432C29.7909 13.611 30.0201 13.7602 30.214 13.8819C30.3022 13.9372 30.4347 13.9523 30.5086 14.0097C30.5871 14.0706 30.7337 14.1426 30.8348 14.1487C30.9873 14.1579 31.2801 14.4376 31.3949 14.5322C31.6356 14.7305 31.8671 14.9409 32.0995 15.151C32.2519 15.1892 32.4017 15.2349 32.5513 15.2805L32.5757 15.2879C32.807 15.3584 33.1039 15.6521 33.2775 15.8059C33.4964 15.9999 33.7306 16.2487 33.9118 16.4809C34.0619 16.6733 34.2619 16.8318 34.3977 17.0393C34.5002 17.196 34.6269 17.3464 34.7598 17.4789C34.988 17.7064 35.0654 17.9087 35.2052 18.1875C35.2734 18.3235 35.2329 18.4769 35.2907 18.6114C35.3028 18.6397 35.3461 18.7122 35.3972 18.7823C35.4007 18.7852 35.4041 18.788 35.4076 18.7908C35.4203 18.8009 35.6163 18.9336 35.5808 18.9433C35.5381 18.9549 35.4615 18.8704 35.3972 18.7823C35.2605 18.669 35.1408 18.4852 35.041 18.3288C34.8759 18.0702 34.7106 17.8128 34.5371 17.5484C34.1899 17.0189 33.7646 16.4535 33.2325 16.0863C32.8269 15.8063 32.4621 15.4789 32.0995 15.151C32.0813 15.1464 32.0631 15.142 32.0449 15.1377C32.0124 15.13 31.9771 15.1258 31.9401 15.1235C31.9559 15.135 31.9714 15.1472 31.9864 15.1601C32.2729 15.4049 32.5047 15.7181 32.8052 15.9427L32.8069 15.944C32.9441 16.0466 33.2 16.238 33.282 16.3912C33.3778 16.5703 33.571 16.6675 33.6869 16.8442C33.771 16.9724 33.8387 17.1057 33.9118 17.2412C33.9776 17.3629 34.1166 17.52 34.1323 17.6605C34.1379 17.7109 34.2438 17.8214 34.2717 17.8713C34.3455 18.0032 34.386 18.1266 34.4359 18.266C34.5016 18.4494 34.5608 18.6469 34.6836 18.8031C34.7005 18.8149 34.7163 18.8272 34.7306 18.8401C34.812 18.9132 34.8959 18.9492 34.9878 18.989C34.9863 18.9851 34.9849 18.9813 34.9834 18.9774C34.9593 18.9612 34.9385 18.9447 34.9263 18.9298C34.7648 18.733 34.6338 18.2999 34.5686 18.0507C34.5437 17.9555 34.465 17.9093 34.4112 17.8354C34.3452 17.745 34.2981 17.6712 34.2424 17.5838L34.2312 17.5663C34.2019 17.5204 34.1518 17.5156 34.1233 17.4587C34.092 17.3964 34.1094 17.3346 34.0828 17.2748C34.0332 17.1636 34.1667 17.3888 34.1773 17.4026C34.353 17.6342 34.6065 17.8571 34.7328 18.118C34.848 18.3558 34.9265 18.5425 34.942 18.8132C34.9444 18.8555 34.961 18.9175 34.9834 18.9774C35.0004 18.9889 35.019 19.0002 35.0373 19.0106C35.059 19.0203 35.0812 19.0306 35.104 19.0419C35.1932 19.0864 35.1178 19.0566 35.0373 19.0106C35.0205 19.0031 35.004 18.996 34.9878 18.989C35.0059 19.0355 35.0272 19.08 35.0479 19.112C35.0742 19.1301 35.1001 19.1474 35.1251 19.1634C35.1888 19.1698 35.2717 19.1419 35.3222 19.2124C35.3931 19.3114 35.278 19.2616 35.1251 19.1634C35.1008 19.161 35.0793 19.1536 35.0635 19.1339C35.0584 19.1275 35.0532 19.1202 35.0479 19.112C34.9115 19.018 34.7654 18.9011 34.6991 18.8222C34.6938 18.8159 34.6886 18.8095 34.6836 18.8031C34.5767 18.728 34.4252 18.6708 34.3145 18.6069C34.2864 18.5907 34.2526 18.57 34.215 18.5464C34.2061 18.5472 34.1958 18.5472 34.184 18.5463C33.9466 18.5288 33.7367 18.3381 33.5744 18.1763C33.3954 17.9978 33.9212 18.3621 34.215 18.5464C34.3485 18.535 34.1792 18.3509 34.1323 18.275C33.9687 18.01 33.785 17.8314 33.444 17.9924C33.2191 18.0986 32.9961 18.5475 32.9559 18.7683C32.9165 18.9843 32.4327 18.8362 32.3328 18.7728C32.2172 18.6994 32.1311 18.5941 32.0359 18.4992C31.9178 18.3814 31.8642 18.1948 31.7458 18.0866C31.5739 17.9296 31.4292 17.822 31.1969 17.822C30.8861 17.822 30.5741 17.8134 30.2635 17.822C30.2088 17.8235 29.9436 17.8448 29.9036 17.8848C29.8208 17.9673 29.7407 18.0679 29.6292 18.1449C29.5718 18.1845 29.5084 18.2132 29.4434 18.2393C29.3059 18.4032 29.1553 18.5634 29.0488 18.7504C29.0062 18.8252 28.9148 18.8597 28.9094 18.9522C28.9065 19.0012 28.9094 18.784 28.9094 18.7549C28.9094 18.7304 28.9111 18.7074 28.9146 18.6858C28.9044 18.7033 28.8958 18.7183 28.8891 18.7302C28.7959 18.8975 28.8717 19.2372 28.9109 19.4133L28.9116 19.4164C28.9208 19.4576 29.082 19.5249 29.1298 19.5487C29.2427 19.605 29.4687 19.5858 29.5549 19.6631C30.0904 20.1436 30.8736 20.03 31.4826 20.3336C31.6274 20.4058 31.8164 20.5334 31.9234 20.6498C31.9688 20.6991 32.0797 20.7596 32.1056 20.8113C32.1324 20.8646 32.1373 20.907 32.1889 20.9391C32.2758 20.9933 32.3479 21.1888 32.4138 21.2732C32.531 21.4234 32.5925 21.6267 32.7152 21.7778C32.8141 21.8996 32.7962 22.0564 32.7962 22.2039C32.7962 22.3915 32.8367 22.5689 32.8367 22.7556C32.8367 23.216 32.8235 23.681 32.7534 24.1347C32.7108 24.4112 32.6027 24.7566 32.4543 24.9891C32.315 25.2074 32.3508 25.5651 32.3508 25.8144C32.3508 25.9302 32.4191 26.2584 32.2698 26.2584C32.1505 26.2584 32.0358 26.218 31.9257 26.218C31.6958 26.218 31.4811 26.1093 31.2577 26.0969C31.112 26.0889 31.1767 25.5924 31.1767 25.4601C31.1767 25.3153 31.1533 25.1484 31.1969 25.0093C31.2158 24.9492 31.2577 24.6972 31.2082 24.6527C31.1842 24.6312 31.1251 24.6443 31.0957 24.6348C31.0199 24.6104 30.9946 24.5349 30.9562 24.4733C30.8751 24.343 30.7551 24.2026 30.6526 24.0876C30.5842 24.011 30.4094 24.0463 30.3264 24.0876C30.0991 24.201 29.9598 24.2401 29.6966 24.2401C29.4386 24.2401 29.2031 24.1594 28.9499 24.1594C28.7028 24.1594 28.4579 24.0977 28.2413 23.9777C27.7626 23.7126 27.5738 22.8359 26.9255 23.2399C26.6122 23.4351 26.1157 23.9826 26.1157 24.3612V25.0474C26.1157 25.1185 26.1016 25.5936 26.0325 25.3524C26.0114 25.2788 25.8913 25.2581 25.8526 25.1887C25.7586 25.02 25.5132 24.9413 25.3667 24.8277C25.2591 24.7442 25.1271 24.755 25.0226 24.6617C24.9366 24.5851 24.7636 24.5068 24.6559 24.4599C24.4663 24.3772 24.2938 24.2892 24.1094 24.1997C23.9335 24.1144 23.7663 24.1338 23.5875 24.0203C23.4948 23.9615 23.3724 23.9985 23.2726 23.9262C23.1905 23.8666 23.0747 23.8513 22.9802 23.8342C22.8917 23.8182 22.7259 23.6542 22.6338 23.6032C22.5026 23.5305 22.3834 23.508 22.2289 23.453C22.0803 23.4001 21.2977 23.3502 21.2977 23.1301V21.8182C21.2977 21.545 21.1648 21.3519 21.1358 21.0916C21.1255 20.9991 21.0365 20.9055 20.9941 20.8292C20.9499 20.75 20.8928 20.5459 20.8928 20.4547C20.8928 20.2449 20.8516 19.9909 20.9423 19.7999C20.989 19.7016 20.9402 19.5522 21.0345 19.477C21.0627 19.4545 21.1287 19.2334 21.1335 19.1899C21.1547 18.9995 21.3557 18.7904 21.4394 18.6069C21.5465 18.372 21.4192 18.0424 21.4192 17.8018C21.4192 17.6778 21.3355 17.5034 21.3067 17.378C21.2792 17.258 21.2517 17.1469 21.219 17.0326C21.1529 16.8019 20.9367 16.6416 20.8119 16.4585C20.7124 16.3127 20.4465 15.999 20.2765 15.9338C20.0381 15.8423 19.7934 15.724 19.5702 15.5772C19.53 15.5508 19.4909 15.5237 19.4527 15.4962C19.2289 15.3868 19.0136 15.2104 18.8865 15.0569C18.8112 14.9661 18.6885 14.8633 18.5851 14.8035C18.5436 14.7796 18.4025 14.7489 18.4501 14.7542C18.6162 14.7726 18.7656 14.9359 18.8865 15.0368C19.0776 15.1963 19.2535 15.3529 19.4527 15.4962C19.5843 15.5606 19.7188 15.6019 19.8402 15.6019C19.9675 15.6019 19.6176 15.4769 19.5163 15.4C19.4107 15.3199 19.3183 15.2253 19.2171 15.1399C19.1117 15.051 19.008 14.9934 18.891 14.9157C18.7066 14.7931 18.6246 14.7946 18.8775 14.7946C19.131 14.7946 19.1265 14.8107 19.1541 14.5905C19.1692 14.4704 19.1907 14.3479 19.236 14.2372C19.2715 14.1504 19.3217 14.0708 19.3948 14.0052C19.4486 13.9569 19.6754 13.8979 19.7457 13.8751C19.9134 13.8208 20.0876 13.8257 20.2613 13.8258Z" fill="#187992"/>
<path d="M18.1802 14.6331C18.4674 14.6045 18.8042 14.4669 19.0507 14.3304C19.2914 14.197 19.6018 14.0936 19.8199 13.9245C19.979 13.8011 20.1329 13.8544 20.317 13.8168C20.588 13.7616 20.8582 13.6852 21.138 13.6666C21.2948 13.6561 21.4488 13.6498 21.5991 13.5971C21.6889 13.5655 22.1171 13.4994 21.8286 13.5029C21.2615 13.5098 20.6445 13.5509 20.0831 13.6441C19.8172 13.6883 19.0172 13.7854 19.2868 13.7854C19.5309 13.7854 19.7531 13.7141 19.9931 13.6823C20.3319 13.6374 20.6473 13.635 20.9828 13.5522C21.524 13.4186 22.0838 13.3686 22.6248 13.2248C22.7812 13.1832 22.9398 13.1739 23.0927 13.1171C23.198 13.0781 22.6259 13.1327 22.5573 13.1396C21.9079 13.2047 21.2655 13.3193 20.6162 13.384C20.6061 13.385 20.4548 13.4365 20.506 13.4535C20.6011 13.4852 20.7672 13.429 20.8569 13.4132C21.1679 13.3581 21.4765 13.29 21.7881 13.2382C22.6899 13.0884 23.5804 13.0588 24.4917 13.0588C24.5607 13.0588 24.6297 13.0588 24.6987 13.0588C24.8881 13.0588 24.3203 13.0806 24.1318 13.0992C23.6394 13.1477 23.1598 13.1799 22.6653 13.1799C22.556 13.1799 22.1166 13.2286 22.3954 13.1149C22.8092 12.9461 23.1802 12.8974 23.628 12.8974C24.3313 12.8974 25.0854 12.7593 25.7873 12.8593C26.0677 12.8992 26.3459 13.0185 26.6331 13.0185C26.8155 13.0185 26.9854 13.0588 27.1662 13.0588C27.2304 13.0588 27.5319 13.0817 27.5148 13.0902C27.2609 13.2168 26.8135 13.0588 26.5521 13.0588C26.2769 13.0588 25.9899 13.0339 25.7109 13.0185C25.6066 13.0127 25.8611 12.942 25.8886 12.94C26.0039 12.9315 26.1216 12.9377 26.2372 12.9377C26.4129 12.9377 26.5772 13.0185 26.7433 13.0185C26.873 13.0185 26.9764 13.0264 27.1009 13.0678C27.2384 13.1135 27.6654 13.1598 27.5216 13.1777C27.2581 13.2105 27.0931 13.0786 26.8535 13.0274C26.6853 12.9915 26.5547 12.8907 26.3812 12.8593C26.2681 12.8388 26.1723 12.8167 26.0438 12.8167C25.9665 12.8167 25.8893 12.8167 25.8121 12.8167C25.5828 12.8167 26.0372 12.8294 26.0955 12.8368C26.586 12.8995 27.0324 13.0992 27.5328 13.0992C27.8048 13.0992 28.0986 13.2013 28.3515 13.2921C28.4662 13.3332 28.5462 13.3687 28.6485 13.4244C28.8011 13.5074 28.9545 13.51 29.1118 13.5926C29.2697 13.6754 29.4254 13.7634 29.5977 13.8258C29.802 13.8999 29.9622 14.0688 30.1555 14.1487C30.279 14.1998 30.3935 14.2952 30.5289 14.3102C30.5769 14.3155 30.5685 14.3605 30.5221 14.3281C30.4185 14.2558 30.3294 14.1784 30.2252 14.1061C30.1143 14.0292 30.0359 13.9032 29.9216 13.8348C29.8631 13.7998 29.7794 13.7787 29.7281 13.7361C29.6188 13.6453 29.4604 13.6127 29.3525 13.523C29.3065 13.4848 29.2099 13.4912 29.1523 13.4625C29.0115 13.3923 29.5047 13.5229 29.5707 13.5432C29.7909 13.611 30.0201 13.7602 30.214 13.8819C30.3022 13.9372 30.4347 13.9523 30.5086 14.0097C30.5871 14.0706 30.7337 14.1426 30.8348 14.1487C30.9873 14.1579 31.2801 14.4376 31.3949 14.5322C32.0113 15.0399 32.5669 15.6268 33.2325 16.0863C33.7646 16.4535 34.1899 17.0189 34.5371 17.5484C34.7106 17.8128 34.8759 18.0702 35.041 18.3288C35.1433 18.4892 35.2666 18.6783 35.4076 18.7908C35.4203 18.8009 35.6163 18.9336 35.5808 18.9433C35.504 18.9641 35.3182 18.6753 35.2907 18.6114C35.2329 18.4769 35.2734 18.3235 35.2052 18.1875C35.0654 17.9087 34.988 17.7064 34.7598 17.4789C34.6269 17.3464 34.5002 17.196 34.3977 17.0393C34.2619 16.8318 34.0619 16.6733 33.9118 16.4809C33.7306 16.2487 33.4964 15.9999 33.2775 15.8059C33.1039 15.6521 32.807 15.3584 32.5757 15.2879C32.4001 15.2344 32.2245 15.1803 32.0449 15.1377C31.8688 15.0959 31.6078 15.1576 31.4511 15.0592C31.1835 14.8912 30.8443 14.8318 30.5311 14.7878C29.5387 14.6485 28.5553 14.4307 27.5598 14.3012C27.2253 14.2577 26.9218 14.1726 26.6016 14.068C26.0129 13.8757 25.4951 13.7962 24.8741 13.7832C23.8968 13.7627 22.9233 13.7047 21.9455 13.7047C21.3807 13.7047 20.827 13.8258 20.2675 13.8258C20.0918 13.8258 19.9154 13.8202 19.7457 13.8751C19.6754 13.8979 19.4486 13.9569 19.3948 14.0052C19.2283 14.1546 19.181 14.3764 19.1541 14.5905C19.1265 14.8107 19.131 14.7946 18.8775 14.7946C18.6246 14.7946 18.7066 14.7931 18.891 14.9157C19.008 14.9934 19.1117 15.051 19.2171 15.1399C19.3183 15.2253 19.4107 15.3199 19.5163 15.4C19.6176 15.4769 19.9675 15.6019 19.8402 15.6019C19.5123 15.6019 19.0884 15.3007 18.8865 15.0569C18.8112 14.9661 18.6885 14.8633 18.5851 14.8035C18.5436 14.7796 18.4025 14.7489 18.4501 14.7542C18.6162 14.7726 18.7656 14.9359 18.8865 15.0368C19.1143 15.2269 19.3204 15.4129 19.5702 15.5772C19.7934 15.724 20.0381 15.8423 20.2765 15.9338C20.4465 15.999 20.7124 16.3127 20.8119 16.4585C20.9367 16.6416 21.1529 16.8019 21.219 17.0326C21.2517 17.1469 21.2792 17.258 21.3067 17.378C21.3355 17.5034 21.4192 17.6778 21.4192 17.8018C21.4192 18.0424 21.5465 18.372 21.4394 18.6069C21.3557 18.7904 21.1547 18.9995 21.1335 19.1899C21.1287 19.2334 21.0627 19.4545 21.0345 19.477C20.9402 19.5522 20.989 19.7016 20.9423 19.7999C20.8516 19.9909 20.8928 20.2449 20.8928 20.4547C20.8928 20.5459 20.9499 20.75 20.9941 20.8292C21.0365 20.9055 21.1255 20.9991 21.1358 21.0916C21.1648 21.3519 21.2977 21.545 21.2977 21.8182C21.2977 22.2555 21.2977 22.6928 21.2977 23.1301C21.2977 23.3502 22.0803 23.4001 22.2289 23.453C22.3834 23.508 22.5026 23.5305 22.6338 23.6032C22.7259 23.6542 22.8917 23.8182 22.9802 23.8342C23.0747 23.8513 23.1905 23.8666 23.2726 23.9262C23.3724 23.9985 23.4948 23.9615 23.5875 24.0203C23.7663 24.1338 23.9335 24.1144 24.1094 24.1997C24.2938 24.2892 24.4663 24.3772 24.6559 24.4599C24.7636 24.5068 24.9366 24.5851 25.0226 24.6617C25.1271 24.755 25.2591 24.7442 25.3667 24.8277C25.5132 24.9413 25.7586 25.02 25.8526 25.1887C25.8913 25.2581 26.0114 25.2788 26.0325 25.3524C26.1016 25.5936 26.1157 25.1185 26.1157 25.0474C26.1157 24.8187 26.1157 24.5899 26.1157 24.3612C26.1157 23.9826 26.6122 23.4351 26.9255 23.2399C27.5738 22.8359 27.7626 23.7126 28.2413 23.9777C28.4579 24.0977 28.7028 24.1594 28.9499 24.1594C29.2031 24.1594 29.4386 24.2401 29.6966 24.2401C29.9598 24.2401 30.0991 24.201 30.3264 24.0876C30.4094 24.0463 30.5842 24.011 30.6526 24.0876C30.7551 24.2026 30.8751 24.343 30.9562 24.4733C30.9946 24.5349 31.0199 24.6104 31.0957 24.6348C31.1251 24.6443 31.1842 24.6312 31.2082 24.6527C31.2577 24.6972 31.2158 24.9492 31.1969 25.0093C31.1533 25.1484 31.1767 25.3153 31.1767 25.4601C31.1767 25.5924 31.112 26.0889 31.2577 26.0969C31.4811 26.1093 31.6958 26.218 31.9257 26.218C32.0358 26.218 32.1505 26.2584 32.2698 26.2584C32.4191 26.2584 32.3508 25.9302 32.3508 25.8144C32.3508 25.5651 32.315 25.2074 32.4543 24.9891C32.6027 24.7566 32.7108 24.4112 32.7534 24.1347C32.8235 23.681 32.8367 23.216 32.8367 22.7556C32.8367 22.5689 32.7962 22.3915 32.7962 22.2039C32.7962 22.0564 32.8141 21.8996 32.7152 21.7778C32.5925 21.6267 32.531 21.4234 32.4138 21.2732C32.3479 21.1888 32.2758 20.9933 32.1889 20.9391C32.1373 20.907 32.1324 20.8646 32.1056 20.8113C32.0797 20.7596 31.9688 20.6991 31.9234 20.6498C31.8164 20.5334 31.6274 20.4058 31.4826 20.3336C30.8736 20.03 30.0904 20.1436 29.5549 19.6631C29.4687 19.5858 29.2427 19.605 29.1298 19.5487C29.082 19.5249 28.9208 19.4576 28.9116 19.4164C28.8726 19.2413 28.7954 18.8984 28.8891 18.7302C28.9502 18.6205 29.18 18.2405 29.3143 18.2256C29.3982 18.2163 29.6591 17.9812 29.4492 18.2324C29.3101 18.3987 29.1568 18.5608 29.0488 18.7504C29.0062 18.8252 28.9148 18.8597 28.9094 18.9522C28.9065 19.0012 28.9094 18.784 28.9094 18.7549C28.9094 18.6228 28.9607 18.5377 29.0533 18.4454C29.2129 18.2863 29.4504 18.2683 29.6292 18.1449C29.7407 18.0679 29.8208 17.9673 29.9036 17.8848C29.9436 17.8448 30.2088 17.8235 30.2635 17.822C30.5741 17.8134 30.8861 17.822 31.1969 17.822C31.4292 17.822 31.5739 17.9296 31.7458 18.0866C31.8642 18.1948 31.9178 18.3814 32.0359 18.4992C32.1311 18.5941 32.2172 18.6994 32.3328 18.7728C32.4327 18.8362 32.9165 18.9843 32.9559 18.7683C32.9961 18.5475 33.2191 18.0986 33.444 17.9924C33.785 17.8314 33.9687 18.01 34.1323 18.275C34.1823 18.356 34.3717 18.5602 34.184 18.5463C33.9466 18.5288 33.7367 18.3381 33.5744 18.1763C33.3725 17.975 34.0673 18.4642 34.3145 18.6069C34.4427 18.6809 34.6256 18.7459 34.7306 18.8401C34.845 18.9428 34.9642 18.9722 35.104 19.0419C35.2424 19.1109 34.9848 19.0011 34.9263 18.9298C34.7648 18.733 34.6338 18.2999 34.5686 18.0507C34.5437 17.9555 34.465 17.9093 34.4112 17.8354C34.3408 17.739 34.292 17.6615 34.2312 17.5663C34.2019 17.5204 34.1518 17.5156 34.1233 17.4587C34.092 17.3964 34.1094 17.3346 34.0828 17.2748C34.0332 17.1636 34.1667 17.3888 34.1773 17.4026C34.353 17.6342 34.6065 17.8571 34.7328 18.118C34.848 18.3558 34.9265 18.5425 34.942 18.8132C34.947 18.8996 35.011 19.0684 35.0635 19.1339C35.1209 19.2054 35.2524 19.1151 35.3222 19.2124C35.4647 19.4113 34.8565 19.0096 34.6991 18.8222C34.5657 18.6632 34.5043 18.457 34.4359 18.266C34.386 18.1266 34.3455 18.0032 34.2717 17.8713C34.2438 17.8214 34.1379 17.7109 34.1323 17.6605C34.1166 17.52 33.9776 17.3629 33.9118 17.2412C33.8387 17.1057 33.771 16.9724 33.6869 16.8442C33.571 16.6675 33.3778 16.5703 33.282 16.3912C33.1997 16.2374 32.942 16.045 32.8052 15.9427C32.5047 15.7181 32.2729 15.4049 31.9864 15.1601C31.7003 14.9156 31.2681 14.9154 30.954 14.752C30.6982 14.6189 29.8603 14.4358 30.1487 14.4358C30.4091 14.4358 30.7814 14.6441 31.0147 14.7452C31.2807 14.8605 30.9044 14.6652 30.8348 14.6084C30.5035 14.3382 30.2199 14.1512 29.7506 14.077C29.077 13.9704 28.4017 13.7935 27.7667 13.5432C27.107 13.2832 26.3752 13.3414 25.6794 13.3414C25.2288 13.3414 24.7789 13.301 24.3253 13.301C23.8627 13.301 23.4001 13.301 22.9375 13.301C22.79 13.301 22.4301 13.2287 22.2874 13.31C22.2731 13.3182 22.5072 13.3561 22.5393 13.3616C22.8087 13.4079 23.1045 13.3884 23.3761 13.3795C23.9615 13.3604 24.5259 13.1396 25.1035 13.1396C25.1808 13.1396 25.5366 13.1582 25.36 13.2696C25.0035 13.4945 24.4842 13.8662 24.0374 13.8662C23.7199 13.8662 24.6646 13.7451 24.9821 13.7451C25.0862 13.7451 25.1959 13.7557 25.2992 13.7428C25.3833 13.7323 24.9285 13.6885 24.8764 13.6845C24.6384 13.6663 24.4017 13.6643 24.1633 13.6643C24.041 13.6643 24.3936 13.6643 24.4198 13.6643C24.9121 13.6643 25.4036 13.6472 25.8931 13.7069C26.3222 13.7593 26.7602 13.8666 27.1864 13.9469C27.4046 13.988 27.6236 13.9893 27.8387 14.0478C28.015 14.0957 28.1586 14.1487 28.3425 14.1487C28.6236 14.1487 28.8517 14.291 29.1208 14.3102C29.3206 14.3244 29.4991 14.4394 29.6944 14.4694C29.9785 14.513 29.5918 14.4078 29.4987 14.3819C28.9737 14.2359 28.5362 13.8718 28.0659 13.606C27.9419 13.536 27.7128 13.4992 27.5733 13.5522C27.1244 13.7227 26.6669 13.6454 26.2057 13.624C26.1513 13.6214 25.9228 13.6135 25.8908 13.5657C25.872 13.5376 25.9588 13.5681 25.992 13.5746C26.1157 13.5988 26.2943 13.6438 26.4081 13.6711C26.9504 13.8008 27.4956 13.9144 28.0434 14.0186C28.3406 14.0752 28.8622 14.0735 29.1433 14.2384C29.1887 14.2651 29.2535 14.2799 29.1928 14.3102" stroke="#187992" stroke-width="3" stroke-linecap="round"/>
<path d="M18.0737 14.7185C18.4716 15.1649 18.713 15.1032 18.9776 15.285C19.3052 15.5099 19.6542 15.69 19.9783 15.9222C20.3844 16.2132 20.9827 16.7086 21.1502 17.2096C21.2528 17.5164 21.4355 17.7713 21.3826 18.114C21.3065 18.6073 20.912 18.9512 20.7918 19.4303C20.7253 19.6957 20.6885 19.8764 20.6885 20.1641C20.6885 20.5903 20.919 21.2499 21.1792 21.5834C21.3646 21.821 21.0599 22.7533 20.9791 22.9899C20.8946 23.2372 21.0788 23.2251 21.2954 23.3053C21.7333 23.4674 22.1797 23.6031 22.619 23.7623C23.5661 24.1057 24.4515 24.5597 25.3339 25.0432C25.5945 25.1861 26.0209 25.523 26.341 25.5646C26.4842 25.5832 26.4413 25.3243 26.4443 25.2492C26.465 24.7349 26.504 24.2354 26.7284 23.7655C26.7606 23.6981 26.9158 23.2628 27.0351 23.3053C27.653 23.5253 28.0669 24.0119 28.6331 24.3345C28.7063 24.3762 28.7944 24.4511 28.9107 24.4511C29.064 24.4511 29.2424 24.3457 29.4046 24.3223C29.6881 24.2814 30.3383 23.9773 30.6119 24.1871C30.7335 24.2804 31.1348 25.3302 31.0509 25.378C30.8682 25.4821 30.8572 25.815 30.8572 26.0281C30.8572 26.4477 31.1313 26.3872 31.4996 26.424C31.7202 26.4459 31.9418 26.5608 32.155 26.6203C32.4199 26.6942 32.5388 26.0183 32.5972 25.8318C32.8035 25.1736 33.0072 24.3504 33.0072 23.6529C33.0072 23.1354 33.0969 22.5198 32.9039 22.0308C32.7867 21.7338 32.6385 21.4661 32.5133 21.1747C32.3702 20.8418 32.4159 20.637 32.1192 20.4891C31.9441 20.4019 31.8967 20.3412 31.2898 20.074C31.0808 19.9819 29.6547 19.4979 29.4336 19.44C29.1745 19.372 29.2913 18.9637 29.3594 18.7737C29.646 17.9736 30.2836 17.8847 31.0251 18.0464C31.3065 18.1077 31.427 18.1639 31.5803 18.3811C31.8169 18.7163 32.327 19.0396 32.6844 19.234C32.9021 19.3524 33.1019 18.7131 33.2106 18.5806C33.3801 18.374 33.5857 18.4081 33.8207 18.5163C34.2977 18.7357 34.7795 19.0477 35.1894 19.382C35.4648 19.6066 35.6794 19.306 35.7382 19.0841" stroke="#187992" stroke-width="4" stroke-linecap="round"/>
<path d="M12.8438 27.3477C13.2939 27.3477 13.7471 27.3181 14.1834 27.2029C14.5102 27.1167 14.8457 27.1285 15.1648 27.0291C15.3721 26.9645 15.5614 26.9353 15.7459 26.7974C15.9869 26.6172 16.3467 26.3364 16.4787 26.0732C16.5208 25.9892 16.7472 25.6677 16.8273 25.6677C17.2938 25.6677 17.6031 25.9924 17.9862 26.247C18.4892 26.5814 18.91 27.0158 19.1774 27.5602C19.1942 27.5943 19.6264 28.4654 19.4938 28.5032C19.2631 28.5689 19.2896 28.805 19.1903 29.0278C19.1424 29.1351 19.8309 29.5512 19.9328 29.7487C20.1123 30.0967 20.1514 30.405 20.0038 30.7529C19.8509 31.1131 18.675 31.2791 18.351 31.345C17.9494 31.4268 17.4129 31.5018 17.6085 31.9952C17.7388 32.3237 17.9901 32.5568 18.2477 32.7933C18.8351 33.3327 19.7674 32.644 20.3976 32.9671C20.7584 33.1521 21.1728 33.4797 21.4113 33.8039C21.6726 34.1592 21.9882 34.2136 22.341 33.8619C22.594 33.6096 22.9147 32.9986 22.8091 32.6195C22.7199 32.2996 22.5476 32.0585 22.5476 31.7184C22.5476 31.4491 23.0229 31.6054 23.1739 31.6411C23.9857 31.8332 24.728 31.9244 25.5659 31.9244C26.3459 31.9244 27.124 31.9823 27.9031 31.9823C28.0145 31.9823 27.9713 32.0035 27.916 32.1014C27.7496 32.3964 27.6368 32.704 27.5448 33.0251C27.4799 33.2514 27.2724 33.3456 27.5868 33.4048C28.0119 33.485 28.3712 33.6212 28.7198 33.8619C28.7931 33.9125 28.9245 34.1251 28.9394 33.952C28.9539 33.7831 29.0476 33.5222 29.1718 33.3984C29.4741 33.097 30.0849 33.9687 30.2758 34.0807C30.4911 34.207 30.8394 34.6803 30.9279 34.8789C30.9717 34.9772 31.0932 35.0721 31.1603 35.1557C31.2219 35.2324 31.3273 35.432 31.3798 35.4582" stroke="#187992" stroke-width="4" stroke-linecap="round"/>
</g>
<defs>
<radialGradient id="paint0_radial_165_977" cx="0" cy="0" r="1" gradientUnits="userSpaceOnUse" gradientTransform="translate(24.9243 25.0001) rotate(90) scale(16.7922 18.7441)">
<stop offset="0.504" stop-color="#FBA324"/>
<stop offset="1" stop-color="#FE4451"/>
</radialGradient>
</defs>
</svg>
