<svg width="96" height="94" viewBox="0 0 96 94" fill="none" xmlns="http://www.w3.org/2000/svg">
<g filter="url(#filter0_d_1270_4650)">
<path d="M91.8746 43.1873C91.8746 66.7812 72.243 85.9078 48.0262 85.9078C23.8093 85.9078 4.17773 66.7812 4.17773 43.1873C4.17773 19.5934 23.8093 0.466797 48.0262 0.466797C72.243 0.466797 91.8746 19.5934 91.8746 43.1873Z" fill="#1E8A70"/>
</g>
<ellipse cx="31.2077" cy="32.0682" rx="5.40597" ry="5.26691" fill="#FCF4E1"/>
<ellipse cx="64.8449" cy="32.0682" rx="5.40597" ry="5.26691" fill="#FCF4E1"/>
<path d="M31.2075 50.2098C31.2075 48.5937 32.5211 47.2837 34.1371 47.2837C44.5629 47.2837 51.4893 47.2837 61.9151 47.2837C63.5311 47.2837 64.8447 48.5937 64.8447 50.2098C64.8447 51.8258 63.5311 53.1358 61.9151 53.1358C51.4893 53.1358 44.5629 53.1358 34.1371 53.1358C32.5211 53.1358 31.2075 51.8258 31.2075 50.2098Z" fill="#FCF4E1"/>
<path d="M62.0465 48.6596C63.6493 48.8772 64.9379 50.2898 64.3831 51.8091C64.1775 52.372 63.9041 52.9494 63.5645 53.6484C62.7193 55.388 61.4804 56.9685 59.9187 58.2999C58.3569 59.6313 56.5028 60.6874 54.4623 61.4079C52.4218 62.1285 50.2348 62.4993 48.0261 62.4993C45.8175 62.4993 43.6305 62.1285 41.5899 61.4079C39.5494 60.6874 37.6954 59.6313 36.1336 58.2999C34.5719 56.9685 33.333 55.388 32.4878 53.6484C32.1567 52.9669 31.8424 52.3561 31.5826 51.7519C30.8891 50.1391 32.25 48.6307 33.999 48.4794L34.1889 48.463C36.0629 48.3009 37.6397 49.847 38.4618 51.5389C38.982 52.6097 39.8569 50.7194 40.8182 51.5389C41.7795 52.3584 42.2651 51.0954 43.5212 51.5389C44.7772 51.9825 46.3663 51.9655 47.7258 51.9655C49.0853 51.9655 50.0738 52.409 51.3298 51.9655C52.5858 51.522 53.501 52.3584 54.4623 51.5389C55.4236 50.7194 57.0702 52.6097 57.5905 51.5389C58.3993 49.8744 60.0108 48.3832 61.8446 48.6322L62.0465 48.6596Z" fill="#FCF4E1"/>
<defs>
<filter id="filter0_d_1270_4650" x="0.177734" y="0.466797" width="95.6968" height="93.4409" filterUnits="userSpaceOnUse" color-interpolation-filters="sRGB">
<feFlood flood-opacity="0" result="BackgroundImageFix"/>
<feColorMatrix in="SourceAlpha" type="matrix" values="0 0 0 0 0 0 0 0 0 0 0 0 0 0 0 0 0 0 127 0" result="hardAlpha"/>
<feOffset dy="4"/>
<feGaussianBlur stdDeviation="2"/>
<feComposite in2="hardAlpha" operator="out"/>
<feColorMatrix type="matrix" values="0 0 0 0 0 0 0 0 0 0 0 0 0 0 0 0 0 0 0.25 0"/>
<feBlend mode="normal" in2="BackgroundImageFix" result="effect1_dropShadow_1270_4650"/>
<feBlend mode="normal" in="SourceGraphic" in2="effect1_dropShadow_1270_4650" result="shape"/>
</filter>
</defs>
</svg>
