<svg width="229" height="230" viewBox="0 0 229 230" fill="none" xmlns="http://www.w3.org/2000/svg">
<g filter="url(#filter0_dd_380_3666)">
<path d="M202.021 111C202.021 159.594 162.69 198.988 114.172 198.988C65.6546 198.988 26.3232 159.594 26.3232 111C26.3232 62.4056 65.6546 23.012 114.172 23.012C162.69 23.012 202.021 62.4056 202.021 111ZM52.9914 111C52.9914 144.843 80.3829 172.278 114.172 172.278C147.961 172.278 175.353 144.843 175.353 111C175.353 77.1573 147.961 49.7223 114.172 49.7223C80.3829 49.7223 52.9914 77.1573 52.9914 111Z" fill="url(#paint0_radial_380_3666)"/>
<path d="M6 96.5542H30.2568V125.446H6V96.5542Z" fill="#FE4451"/>
<rect x="198.743" y="96.5542" width="24.2568" height="28.8916" fill="#FE4451"/>
<rect width="24.2744" height="28.8706" transform="matrix(0.735164 0.677889 -0.67673 0.736232 184.19 158.277)" fill="#FE4451"/>
<rect x="99.749" y="220" width="24.2952" height="28.8459" transform="rotate(-90 99.749 220)" fill="#FE4451"/>
<rect width="24.2744" height="28.8706" transform="matrix(-0.735164 0.677889 0.67673 0.736232 40.2354 158.277)" fill="#FE4451"/>
<rect width="24.2744" height="28.8706" transform="matrix(0.735164 -0.677889 -0.67673 -0.736232 184.19 63.7229)" fill="#FE4451"/>
<rect width="24.2952" height="28.8459" transform="matrix(0 1 1 0 99.749 2)" fill="#FE4451"/>
<rect width="24.2744" height="28.8706" transform="matrix(-0.735164 -0.677889 0.67673 -0.736232 40.2354 63.7229)" fill="#FE4451"/>
<ellipse cx="114.172" cy="111" rx="53.7583" ry="53.8434" fill="#13233A"/>
<mask id="mask0_380_3666" style="mask-type:alpha" maskUnits="userSpaceOnUse" x="60" y="57" width="108" height="108">
<path d="M167.931 111C167.931 140.737 143.862 164.843 114.172 164.843C84.4825 164.843 60.4141 140.737 60.4141 111C60.4141 81.2631 84.4825 57.1566 114.172 57.1566C143.862 57.1566 167.931 81.2631 167.931 111Z" fill="#13233A"/>
</mask>
<g mask="url(#mask0_380_3666)">
<path d="M57.4551 125.773C57.4551 125.07 57.7307 124.37 58.102 123.739C58.0804 123.526 58.1904 123.394 58.3722 123.313C58.7821 123.132 59.557 123.212 60.0122 123.212C61.129 123.212 62.0483 122.791 63.1092 122.709C65.1207 122.554 67.0219 121.427 69.057 121.172C70.6029 120.979 72.0902 120.59 73.6125 120.271C75.7537 119.822 78.1357 118.952 79.0867 116.809C79.3129 116.299 79.4327 115.87 80.0433 115.87C80.5159 115.87 80.4205 116.137 80.8104 116.344C81.1089 116.502 81.364 116.774 81.6628 116.932C82.134 117.18 82.6899 117.086 83.1119 117.321C83.702 117.649 84.3256 118.35 84.8356 118.791C85.6396 119.488 86.6066 119.957 86.6066 121.087C86.6066 121.965 87.5734 123.049 88.1409 123.724C88.7794 124.483 88.1396 125.494 87.7242 126.029C87.4771 126.347 87.5131 126.91 87.6378 127.481C88.0211 127.533 87.9705 128.151 87.9705 128.419C87.9705 128.521 87.9793 128.618 87.9956 128.713C88.0385 128.844 88.076 128.96 88.103 129.055C88.1129 129.09 88.1221 129.125 88.1306 129.16C88.4527 129.911 89.1633 130.509 89.3437 131.322C89.4155 131.645 90.0166 132.394 90.3571 132.432C90.4297 132.44 91.3731 132.856 90.9633 132.736C90.1894 132.508 88.9134 131.568 88.5198 130.819C88.2481 130.302 88.2624 129.702 88.1306 129.16C88.0695 129.017 88.0224 128.869 87.9956 128.713C87.8834 128.37 87.7341 127.923 87.6378 127.481C87.635 127.481 87.6323 127.481 87.6295 127.48C87.4366 127.459 87.2972 127.471 87.2885 127.689C87.25 128.654 87.6055 129.122 87.7905 129.956C87.9833 130.825 88.7939 131.64 89.5805 132.091C90.0644 132.367 91.2823 133.52 91.38 134.139C91.5465 135.196 91.2571 135.147 90.2814 135.591C89.2172 136.075 88.315 136.634 87.2885 137.175C86.3749 137.657 85.505 137.897 84.523 138.199C83.5717 138.493 82.4393 137.984 81.4923 138.323C80.393 138.716 80.4695 139.239 80.4695 140.286C80.4695 141.321 81.0643 141.731 81.3124 142.601C81.4089 142.939 81.8963 143.701 82.1648 143.948C82.6389 144.383 83.1586 144.962 83.5381 145.485C84.2067 146.405 85.1658 146.669 85.9626 147.249C86.3203 147.51 86.915 147.116 87.2885 147.116H89.2396C90.3769 147.116 91.4548 147.257 92.5354 147.591C93.6097 147.922 94.3046 147.872 95.1305 148.653C95.4321 148.938 95.7264 149.154 96.0776 149.374C96.4233 149.59 96.7267 150.31 97.1004 150.617C98.009 151.361 98.4323 151.385 99.6008 151.385C99.9507 151.385 100.414 151.244 100.892 151.035C100.838 150.978 100.912 150.918 101.233 150.877C101.326 150.831 101.418 150.783 101.51 150.734C101.651 150.577 101.744 150.331 101.95 150.228C102.517 149.943 103.789 148.939 104.081 148.387C104.515 147.564 105.651 147.123 105.861 146.177C106.074 145.216 105.321 144.089 105.056 143.227C104.897 142.711 105.018 142.022 105.018 141.482C105.018 141.176 106.379 141.592 106.818 141.652C108.045 141.822 109.236 141.823 110.473 141.823C111.469 141.823 112.335 142.165 113.334 142.165C116.67 142.165 119.99 143.018 123.335 143.018C126.394 143.018 123.089 146.319 123.089 147.704C123.089 148.314 125.539 148.482 125.977 148.482C127.057 148.482 127.545 149.52 128.373 149.981C129.219 150.451 129.357 151.726 130.514 151.726C130.906 151.726 131.374 151.598 131.613 151.3C131.915 150.92 131.87 150.414 132.162 150.057C132.463 149.689 132.192 149.507 132.806 149.507C133.309 149.507 133.722 149.621 134.17 149.677C134.968 149.777 135.508 151.17 136.291 151.394C136.46 151.443 137.027 152.15 137.163 152.324C137.503 152.763 138.118 152.724 138.507 153.092C138.802 153.371 139.217 153.483 139.454 153.813C139.664 154.105 139.688 154.806 139.89 154.98C140.245 155.284 140.458 155.994 140.648 156.422C140.706 156.552 141.171 157.302 141.245 157.361C141.347 157.443 141.671 158.47 141.671 158.642C141.671 159.267 141.56 159.549 141.338 160.11L141.33 160.131C141.037 160.873 140.74 161.612 140.439 162.351C140.096 163.194 139.158 163.983 138.612 164.713C138.186 165.281 137.932 165.732 137.314 166.164C136.868 166.476 136.536 166.677 136.367 167.207C136.012 168.317 135.188 169.065 134.151 169.522C132.384 170.299 130.722 170.325 128.904 170.755C124.936 171.693 120.584 171.089 116.573 170.717C106.412 169.776 96.0903 167.54 86.7676 163.366C81.8857 161.18 78.1852 157.512 74.1997 154.079C71.6176 151.855 69.587 148.668 67.589 145.921C66.3839 144.264 65.5419 142.3 64.5204 140.533C61.8623 135.934 57.4551 131.352 57.4551 125.773Z" fill="#187992"/>
<path d="M61.8875 121.333C60.5084 121.333 59.7898 121.52 58.9041 122.605C58.2098 123.455 57.4551 124.61 57.4551 125.773C57.4551 131.352 61.8623 135.934 64.5204 140.533C65.5419 142.3 66.3839 144.264 67.589 145.921C69.587 148.668 71.6176 151.855 74.1997 154.079C78.1852 157.512 81.8857 161.18 86.7676 163.366C96.0903 167.54 106.412 169.776 116.573 170.717C120.584 171.089 124.936 171.693 128.904 170.755C130.722 170.325 132.384 170.299 134.151 169.522C135.188 169.065 136.012 168.317 136.367 167.207C136.536 166.677 136.868 166.476 137.314 166.164C137.932 165.732 138.186 165.281 138.612 164.713C139.158 163.983 140.096 163.194 140.439 162.351C140.74 161.612 141.037 160.873 141.33 160.131C141.557 159.555 141.671 159.275 141.671 158.642C141.671 158.47 141.347 157.443 141.245 157.361C141.171 157.302 140.706 156.552 140.648 156.422C140.458 155.994 140.245 155.284 139.89 154.98C139.688 154.806 139.664 154.105 139.454 153.813C139.217 153.483 138.802 153.371 138.507 153.092C138.118 152.724 137.503 152.763 137.163 152.324C137.027 152.15 136.46 151.443 136.291 151.394C135.508 151.17 134.968 149.777 134.17 149.677C133.722 149.621 133.309 149.507 132.806 149.507C132.192 149.507 132.463 149.689 132.162 150.057C131.87 150.414 131.915 150.92 131.613 151.3C131.374 151.598 130.906 151.726 130.514 151.726C129.357 151.726 129.219 150.451 128.373 149.981C127.545 149.52 127.057 148.482 125.977 148.482C125.539 148.482 123.089 148.314 123.089 147.704C123.089 146.319 126.394 143.018 123.335 143.018C119.99 143.018 116.67 142.165 113.334 142.165C112.335 142.165 111.469 141.823 110.473 141.823C109.236 141.823 108.045 141.822 106.818 141.652C106.379 141.592 105.018 141.176 105.018 141.482C105.018 142.022 104.897 142.711 105.056 143.227C105.321 144.089 106.074 145.216 105.861 146.177C105.651 147.123 104.515 147.564 104.081 148.387C103.789 148.939 102.517 149.943 101.95 150.228C101.649 150.378 101.59 150.835 101.268 150.873C100.38 150.977 101.22 151.214 101.646 151.214C102.796 151.214 104.275 150.764 105.103 149.934C105.298 149.738 105.874 149.256 105.681 148.919C105.516 148.63 103.23 149.522 102.963 149.763C102.282 150.376 100.537 151.385 99.6008 151.385C98.4323 151.385 98.009 151.361 97.1004 150.617C96.7267 150.31 96.4233 149.59 96.0776 149.374C95.7264 149.154 95.4321 148.938 95.1305 148.653C94.3046 147.872 93.6097 147.922 92.5354 147.591C91.4548 147.257 90.3769 147.116 89.2396 147.116C88.5892 147.116 87.9389 147.116 87.2885 147.116C86.915 147.116 86.3203 147.51 85.9626 147.249C85.1658 146.669 84.2067 146.405 83.5381 145.485C83.1586 144.962 82.6389 144.383 82.1648 143.948C81.8963 143.701 81.4089 142.939 81.3124 142.601C81.0643 141.731 80.4695 141.321 80.4695 140.286C80.4695 139.239 80.393 138.716 81.4923 138.323C82.4393 137.984 83.5717 138.493 84.523 138.199C85.505 137.897 86.3749 137.657 87.2885 137.175C88.315 136.634 89.2172 136.075 90.2814 135.591C91.2571 135.147 91.5465 135.196 91.38 134.139C91.2823 133.52 90.0644 132.367 89.5805 132.091C88.7939 131.64 87.9833 130.825 87.7905 129.956C87.6055 129.122 87.25 128.654 87.2885 127.689C87.2972 127.471 87.4366 127.459 87.6295 127.48C88.0218 127.524 87.9705 128.149 87.9705 128.419C87.9705 129.567 89.1083 130.261 89.3437 131.322C89.4155 131.645 90.0166 132.394 90.3571 132.432C90.4297 132.44 91.3731 132.856 90.9633 132.736C90.1894 132.508 88.9134 131.568 88.5198 130.819C88.2305 130.269 88.2654 129.624 88.103 129.055C87.9142 128.393 87.2128 126.688 87.7242 126.029C88.1396 125.494 88.7794 124.483 88.1409 123.724C87.5734 123.049 86.6066 121.965 86.6066 121.087C86.6066 119.957 85.6396 119.488 84.8356 118.791C84.3256 118.35 83.702 117.649 83.1119 117.321C82.6899 117.086 82.134 117.18 81.6628 116.932C81.364 116.774 81.1089 116.502 80.8104 116.344C80.4205 116.137 80.5159 115.87 80.0433 115.87C79.4327 115.87 79.3129 116.299 79.0867 116.809C78.1357 118.952 75.7537 119.822 73.6125 120.271C72.0902 120.59 70.6029 120.979 69.057 121.172C67.0219 121.427 65.1207 122.554 63.1092 122.709C62.0483 122.791 61.129 123.212 60.0122 123.212C59.3099 123.212 57.8463 123.021 58.137 123.895" stroke="#187992" stroke-width="3" stroke-linecap="round"/>
<path d="M93.9356 62.2807C94.0149 62.271 94.0954 62.2584 94.1772 62.2416C95.3531 62.0007 96.5257 61.6676 97.7403 61.5865C98.4209 61.5411 99.089 61.5135 99.7416 61.2834C100.131 61.146 101.99 60.8575 100.737 60.8728C99.6574 60.8859 98.536 60.9278 97.4115 61.0051C97.2964 61.0319 97.1815 61.0594 97.0668 61.0879C95.6107 61.4488 94.2417 61.4594 92.7715 61.655C91.7298 61.7935 90.7654 62.1047 89.7062 62.1047C88.5362 62.1047 92.0079 61.6814 93.162 61.4887C94.5295 61.2604 95.973 61.1038 97.4115 61.0051C99.2004 60.5886 101.031 60.3603 102.833 59.9817C102.964 59.929 103.123 59.8971 103.3 59.88C103.598 59.8123 103.896 59.7396 104.193 59.6604C104.518 59.5735 104.846 59.5189 105.172 59.4583C104.905 59.4626 104.637 59.4648 104.369 59.4648C103.995 59.4648 102.729 59.5969 102.805 59.4092C102.334 59.4649 101.864 59.525 101.395 59.5876C101.117 59.6288 100.84 59.6726 100.562 59.719C99.2092 59.9448 97.8699 60.2415 96.5201 60.4817C96.1309 60.5509 95.4103 60.7956 94.9972 60.6577C94.7751 60.5835 95.4318 60.3589 95.4756 60.3546C97.4564 60.1562 99.4226 59.8504 101.395 59.5876C101.867 59.5174 102.339 59.4544 102.811 59.398C102.843 59.3483 102.96 59.2783 103.197 59.1813C104.993 58.4453 106.604 58.2328 108.547 58.2328C111.599 58.2328 114.872 57.6308 117.918 58.0666C118.429 58.1397 118.938 58.2736 119.448 58.4044C119.589 58.4067 119.73 58.4088 119.871 58.4088C120.633 58.4088 121.347 58.7608 122.067 58.7608C122.185 58.7608 122.297 58.7623 122.407 58.7664C122.114 58.6878 121.845 58.5676 121.576 58.4467C120.814 58.2552 120.048 58.0706 119.256 57.9689C119.003 57.9363 117.031 57.8809 118.026 57.8809H119.031C119.589 57.8809 120.005 57.9773 120.496 58.0666C120.89 58.1385 121.233 58.2931 121.576 58.4467C122.272 58.6219 122.964 58.8029 123.669 58.9319C123.746 58.9351 123.824 58.9368 123.902 58.9368C124.181 58.9368 125.49 59.0366 125.416 59.0737C125.389 59.0869 125.362 59.0994 125.335 59.1113C125.388 59.1123 125.441 59.1128 125.494 59.1128C126.674 59.1128 127.949 59.5578 129.047 59.9537C129.545 60.1331 129.892 60.288 130.336 60.5305C130.998 60.8925 131.664 60.9038 132.347 61.2639C133.032 61.625 133.708 62.0085 134.455 62.2807C135.342 62.6037 136.037 63.3403 136.876 63.6887C137.356 63.8879 137.804 64.2419 138.314 64.361C137.928 64.078 137.579 63.7816 137.179 63.5029C136.698 63.1676 136.357 62.6181 135.861 62.3198C135.607 62.1673 135.244 62.0752 135.021 61.8896C134.547 61.4937 133.86 61.3518 133.391 60.9608C133.191 60.794 132.772 60.822 132.522 60.6968C131.911 60.3907 134.052 60.9602 134.338 61.0488C135.294 61.3444 136.289 61.9946 137.13 62.5251C137.513 62.7666 138.088 62.8325 138.409 63.0825C138.75 63.3479 139.386 63.662 139.824 63.6887C140.486 63.7288 141.757 64.9483 142.255 65.3606C143.3 66.2251 144.305 67.1424 145.313 68.0586C145.974 68.2252 146.625 68.4243 147.274 68.6231L147.38 68.6556C148.384 68.9627 149.672 70.2433 150.426 70.9142C151.376 71.7598 152.392 72.8445 153.179 73.8572C153.83 74.6958 154.698 75.3871 155.287 76.2918C155.732 76.9749 156.282 77.6305 156.859 78.2082C157.849 79.2 158.185 80.0822 158.792 81.2978C159.088 81.8909 158.912 82.5597 159.163 83.1458C159.216 83.2693 159.404 83.5853 159.625 83.8911C159.64 83.9036 159.655 83.9159 159.67 83.928C159.726 83.9721 160.576 84.5508 160.422 84.5928C160.237 84.6435 159.904 84.2754 159.625 83.8911C159.032 83.397 158.513 82.5957 158.079 81.9138C157.363 80.7862 156.645 79.6642 155.893 78.5113C154.385 76.2025 152.54 73.7375 150.231 72.1364C148.47 70.9156 146.887 69.4883 145.313 68.0586C145.234 68.0388 145.155 68.0194 145.076 68.0005C144.935 67.9669 144.782 67.9486 144.621 67.9385C144.69 67.989 144.757 68.0422 144.822 68.0983C146.066 69.1656 147.072 70.531 148.376 71.5106L148.383 71.5162C148.979 71.9635 150.09 72.7979 150.445 73.4661C150.861 74.2467 151.7 74.6708 152.203 75.4411C152.567 76.0001 152.861 76.5813 153.179 77.1718C153.464 77.7023 154.067 78.3876 154.135 79.0001C154.16 79.2199 154.62 79.7015 154.741 79.9192C155.061 80.4943 155.237 81.0324 155.453 81.64C155.738 82.4397 155.995 83.3009 156.528 83.9816C156.601 84.0333 156.67 84.087 156.732 84.1431C157.086 84.4617 157.449 84.6186 157.848 84.7921C157.842 84.7754 157.836 84.7587 157.829 84.7419C157.725 84.6711 157.634 84.599 157.581 84.5342C156.881 83.6762 156.312 81.7876 156.029 80.7014C155.921 80.2862 155.58 80.0847 155.346 79.7628C155.059 79.3683 154.855 79.0464 154.613 78.6654L154.565 78.5895C154.438 78.3891 154.22 78.3682 154.096 78.1202C153.961 77.8487 154.036 77.5789 153.921 77.3184C153.706 76.8337 154.285 77.8152 154.331 77.8757C155.093 78.8853 156.194 79.8572 156.742 80.9947C157.242 82.0314 157.582 82.8456 157.65 84.0257C157.66 84.2101 157.732 84.4804 157.829 84.7419C157.903 84.7917 157.984 84.841 158.063 84.8865C158.158 84.9288 158.254 84.9736 158.353 85.023C158.74 85.2171 158.413 85.0869 158.063 84.8865C157.99 84.8539 157.919 84.8227 157.848 84.7921C157.927 84.9951 158.02 85.189 158.109 85.3286C158.223 85.4077 158.336 85.4831 158.444 85.5529C158.721 85.5806 159.08 85.459 159.299 85.7661C159.608 86.1981 159.108 85.9808 158.444 85.5529C158.339 85.5423 158.246 85.51 158.177 85.4239C158.155 85.3962 158.132 85.3641 158.109 85.3286C157.517 84.9185 156.883 84.409 156.595 84.0649C156.572 84.0374 156.55 84.0096 156.528 83.9816C156.064 83.6542 155.407 83.4048 154.926 83.1262C154.804 83.0556 154.658 82.9656 154.494 82.8627C154.456 82.8661 154.411 82.866 154.36 82.8622C153.33 82.7858 152.419 81.9543 151.714 81.249C150.937 80.4707 153.219 82.0589 154.494 82.8627C155.074 82.8131 154.339 82.0103 154.135 81.6792C153.425 80.5236 152.628 79.745 151.148 80.4472C150.172 80.9102 149.205 82.8675 149.03 83.8302C148.859 84.7719 146.759 84.126 146.326 83.8498C145.824 83.5299 145.45 83.0706 145.037 82.6569C144.525 82.1434 144.292 81.3298 143.778 80.8579C143.032 80.1732 142.404 79.7041 141.396 79.7041C140.047 79.7041 138.693 79.6666 137.345 79.7041C137.108 79.7107 135.957 79.8037 135.783 79.9779C135.424 80.3377 135.076 80.7764 134.592 81.1121C134.343 81.2847 134.068 81.41 133.786 81.5235C133.189 82.2384 132.535 82.9369 132.073 83.752C131.888 84.0783 131.492 84.2285 131.468 84.6319C131.455 84.8456 131.468 83.8984 131.468 83.7715C131.468 83.6646 131.476 83.5647 131.491 83.4704C131.446 83.5464 131.409 83.6121 131.38 83.664C130.976 84.3932 131.304 85.8745 131.475 86.6423L131.478 86.6559C131.518 86.8354 132.217 87.1288 132.425 87.2327C132.915 87.4782 133.896 87.3942 134.27 87.7314C136.594 89.8262 139.993 89.3312 142.636 90.6549C143.264 90.9696 144.084 91.5258 144.549 92.0335C144.746 92.2483 145.227 92.5121 145.34 92.7374C145.456 92.9698 145.477 93.1546 145.701 93.2948C146.078 93.5309 146.391 94.3833 146.677 94.7516C147.186 95.4064 147.453 96.2928 147.985 96.9515C148.415 97.4826 148.337 98.1661 148.337 98.8092C148.337 99.6273 148.512 100.401 148.512 101.214C148.512 103.222 148.455 105.249 148.151 107.228C147.966 108.433 147.497 109.939 146.853 110.953C146.248 111.905 146.404 113.464 146.404 114.551C146.404 115.056 146.7 116.487 146.052 116.487C145.534 116.487 145.037 116.311 144.559 116.311C143.561 116.311 142.629 115.837 141.66 115.783C141.027 115.748 141.308 113.583 141.308 113.006C141.308 112.375 141.207 111.647 141.396 111.041C141.478 110.779 141.66 109.68 141.445 109.486C141.341 109.392 141.084 109.449 140.957 109.408C140.628 109.301 140.518 108.973 140.351 108.704C139.999 108.136 139.478 107.523 139.034 107.022C138.737 106.688 137.978 106.842 137.618 107.022C136.631 107.516 136.027 107.687 134.885 107.687C133.765 107.687 132.743 107.335 131.644 107.335C130.572 107.335 129.509 107.066 128.569 106.543C126.491 105.387 125.672 101.565 122.858 103.326C121.498 104.177 119.344 106.564 119.344 108.215V111.207C119.344 111.517 119.282 113.588 118.982 112.537C118.891 112.216 118.369 112.126 118.201 111.823C117.793 111.087 116.729 110.744 116.093 110.249C115.626 109.885 115.053 109.932 114.599 109.525C114.226 109.191 113.475 108.85 113.008 108.645C112.185 108.285 111.436 107.901 110.636 107.511C109.873 107.139 109.147 107.224 108.371 106.729C107.969 106.472 107.437 106.634 107.004 106.318C106.648 106.059 106.145 105.992 105.735 105.917C105.351 105.847 104.632 105.133 104.232 104.91C103.663 104.593 103.145 104.495 102.475 104.255C101.83 104.024 98.4334 103.807 98.4334 102.847V97.1275C98.4334 95.9363 97.8565 95.0946 97.7306 93.9596C97.6858 93.5563 97.2999 93.148 97.1156 92.8157C96.924 92.4702 96.6763 91.5802 96.6763 91.1828C96.6763 90.2682 96.4972 89.1605 96.8911 88.3278C97.0938 87.8992 96.8819 87.2479 97.2913 86.9199C97.4136 86.8219 97.6998 85.8577 97.7208 85.6684C97.8129 84.8381 98.6853 83.9265 99.0485 83.1262C99.5131 82.1023 98.9606 80.6653 98.9606 79.6161C98.9606 79.0753 98.5973 78.315 98.4725 77.7682C98.3532 77.2453 98.2339 76.7608 98.0918 76.2625C97.8048 75.2563 96.8667 74.5576 96.3249 73.7594C95.8932 73.1236 94.7392 71.7557 94.0015 71.4715C92.9667 71.0729 91.9049 70.5568 90.9362 69.9169C90.7617 69.8016 90.592 69.6838 90.4261 69.5639C89.4547 69.0865 88.5206 68.3178 87.9686 67.6485C87.6419 67.2524 87.1096 66.8041 86.6605 66.5437C86.4805 66.4393 85.8681 66.3056 86.0748 66.3286C86.7957 66.4088 87.444 67.1207 87.9686 67.5605C88.7981 68.2561 89.5614 68.939 90.4261 69.5639C90.9971 69.8445 91.5809 70.0244 92.1077 70.0244C92.6602 70.0244 91.1416 69.4797 90.7019 69.1445C90.2437 68.7951 89.8428 68.3825 89.4036 68.0103C88.9461 67.6226 88.496 67.3717 87.9881 67.0325C87.1879 66.4983 86.8321 66.5046 87.9295 66.5046C89.03 66.5046 89.0105 66.5747 89.1303 65.6148C89.1956 65.0913 89.2889 64.5573 89.4857 64.0743C89.6398 63.696 89.8574 63.349 90.1748 63.0629C90.4082 62.8525 91.3926 62.595 91.6977 62.4958C92.4256 62.2591 93.1816 62.2802 93.9356 62.2807Z" fill="#187992"/>
<path d="M84.9033 65.8006C86.1499 65.6757 87.6116 65.0758 88.6812 64.4806C89.7261 63.8992 91.0733 63.4482 92.0198 62.7109C92.7103 62.173 93.3781 62.4053 94.1772 62.2416C95.3531 62.0007 96.5257 61.6676 97.7403 61.5865C98.4209 61.5411 99.089 61.5135 99.7416 61.2834C100.131 61.146 101.99 60.8575 100.737 60.8728C98.2761 60.9028 95.5986 61.082 93.162 61.4887C92.0079 61.6814 88.5362 62.1047 89.7062 62.1047C90.7654 62.1047 91.7298 61.7935 92.7715 61.655C94.2417 61.4594 95.6107 61.4488 97.0668 61.0879C99.4156 60.5056 101.845 60.2875 104.193 59.6604C104.872 59.4791 105.56 59.4384 106.224 59.191C106.681 59.0206 104.198 59.2588 103.9 59.2888C101.082 59.5728 98.2935 60.0723 95.4756 60.3546C95.4318 60.3589 94.7751 60.5835 94.9972 60.6577C95.4103 60.7956 96.1309 60.5509 96.5201 60.4817C97.8699 60.2415 99.2092 59.9448 100.562 59.719C104.475 59.0657 108.34 58.9368 112.295 58.9368C112.595 58.9368 112.894 58.9368 113.194 58.9368C114.016 58.9368 111.552 59.0318 110.734 59.1128C108.596 59.3244 106.515 59.4648 104.369 59.4648C103.894 59.4648 101.987 59.677 103.197 59.1813C104.993 58.4453 106.604 58.2328 108.547 58.2328C111.599 58.2328 114.872 57.6308 117.918 58.0666C119.135 58.2407 120.343 58.7608 121.589 58.7608C122.381 58.7608 123.118 58.9368 123.902 58.9368C124.181 58.9368 125.49 59.0366 125.416 59.0737C124.314 59.6255 122.372 58.9368 121.237 58.9368C120.043 58.9368 118.798 58.8282 117.586 58.7608C117.134 58.7356 118.239 58.4275 118.358 58.4186C118.858 58.3815 119.369 58.4088 119.871 58.4088C120.633 58.4088 121.347 58.7608 122.067 58.7608C122.63 58.7608 123.079 58.7955 123.619 58.9759C124.216 59.1752 126.069 59.3769 125.445 59.455C124.302 59.5982 123.586 59.0232 122.546 58.7999C121.816 58.6433 121.249 58.2038 120.496 58.0666C120.005 57.9773 119.589 57.8809 119.031 57.8809C118.696 57.8809 118.361 57.8809 118.026 57.8809C117.031 57.8809 119.003 57.9363 119.256 57.9689C121.385 58.2422 123.322 59.1128 125.494 59.1128C126.674 59.1128 127.949 59.5578 129.047 59.9537C129.545 60.1331 129.892 60.288 130.336 60.5305C130.998 60.8925 131.664 60.9038 132.347 61.2639C133.032 61.625 133.708 62.0085 134.455 62.2807C135.342 62.6037 136.037 63.3403 136.876 63.6887C137.412 63.9113 137.909 64.3272 138.497 64.3926C138.705 64.4158 138.669 64.6119 138.467 64.4709C138.018 64.1555 137.631 63.8179 137.179 63.5029C136.698 63.1676 136.357 62.6181 135.861 62.3198C135.607 62.1673 135.244 62.0752 135.021 61.8896C134.547 61.4937 133.86 61.3518 133.391 60.9608C133.191 60.794 132.772 60.822 132.522 60.6968C131.911 60.3907 134.052 60.9602 134.338 61.0488C135.294 61.3444 136.289 61.9946 137.13 62.5251C137.513 62.7666 138.088 62.8325 138.409 63.0825C138.75 63.3479 139.386 63.662 139.824 63.6887C140.486 63.7288 141.757 64.9483 142.255 65.3606C144.93 67.5742 147.342 70.1333 150.231 72.1364C152.54 73.7375 154.385 76.2025 155.893 78.5113C156.645 79.6642 157.363 80.7862 158.079 81.9138C158.523 82.613 159.058 83.4376 159.67 83.928C159.726 83.9721 160.576 84.5508 160.422 84.5928C160.089 84.6839 159.282 83.4246 159.163 83.1458C158.912 82.5597 159.088 81.8909 158.792 81.2978C158.185 80.0822 157.849 79.2 156.859 78.2082C156.282 77.6305 155.732 76.9749 155.287 76.2918C154.698 75.3871 153.83 74.6958 153.179 73.8572C152.392 72.8445 151.376 71.7598 150.426 70.9142C149.672 70.2433 148.384 68.9627 147.38 68.6556C146.618 68.4224 145.856 68.1864 145.076 68.0005C144.312 67.8182 143.179 68.0873 142.499 67.6583C141.338 66.9259 139.866 66.667 138.506 66.4752C134.199 65.8676 129.931 64.9179 125.611 64.3535C124.159 64.1639 122.842 63.7926 121.452 63.3367C118.897 62.4984 116.65 62.1518 113.955 62.0949C109.713 62.0055 105.488 61.7527 101.245 61.7527C98.7937 61.7527 96.3906 62.2807 93.9625 62.2807C93.1996 62.2807 92.4342 62.2563 91.6977 62.4958C91.3926 62.595 90.4082 62.8525 90.1748 63.0629C89.4521 63.7144 89.2468 64.6814 89.1303 65.6148C89.0105 66.5747 89.03 66.5046 87.9295 66.5046C86.8321 66.5046 87.1879 66.4983 87.9881 67.0325C88.496 67.3717 88.9461 67.6226 89.4036 68.0103C89.8428 68.3825 90.2437 68.7951 90.7019 69.1445C91.1416 69.4797 92.6602 70.0244 92.1077 70.0244C90.6846 70.0244 88.845 68.7111 87.9686 67.6485C87.6419 67.2524 87.1096 66.8041 86.6605 66.5437C86.4805 66.4393 85.8681 66.3056 86.0748 66.3286C86.7957 66.4088 87.444 67.1207 87.9686 67.5605C88.9573 68.3896 89.8518 69.2005 90.9362 69.9169C91.9049 70.5568 92.9667 71.0729 94.0015 71.4715C94.7392 71.7557 95.8932 73.1236 96.3249 73.7594C96.8667 74.5576 97.8048 75.2563 98.0918 76.2625C98.2339 76.7608 98.3532 77.2453 98.4725 77.7682C98.5973 78.315 98.9606 79.0753 98.9606 79.6161C98.9606 80.6653 99.5131 82.1023 99.0485 83.1262C98.6853 83.9265 97.8129 84.8381 97.7208 85.6684C97.6998 85.8577 97.4136 86.8219 97.2913 86.9199C96.8819 87.2479 97.0938 87.8992 96.8911 88.3278C96.4972 89.1605 96.6763 90.2682 96.6763 91.1828C96.6763 91.5802 96.924 92.4702 97.1156 92.8157C97.2999 93.148 97.6858 93.5563 97.7306 93.9596C97.8565 95.0946 98.4334 95.9363 98.4334 97.1275C98.4334 99.0341 98.4334 100.941 98.4334 102.847C98.4334 103.807 101.83 104.024 102.475 104.255C103.145 104.495 103.663 104.593 104.232 104.91C104.632 105.133 105.351 105.847 105.735 105.917C106.145 105.992 106.648 106.059 107.004 106.318C107.437 106.634 107.969 106.472 108.371 106.729C109.147 107.224 109.873 107.139 110.636 107.511C111.436 107.901 112.185 108.285 113.008 108.645C113.475 108.85 114.226 109.191 114.599 109.525C115.053 109.932 115.626 109.885 116.093 110.249C116.729 110.744 117.793 111.087 118.201 111.823C118.369 112.126 118.891 112.216 118.982 112.537C119.282 113.588 119.344 111.517 119.344 111.207C119.344 110.21 119.344 109.212 119.344 108.215C119.344 106.564 121.498 104.177 122.858 103.326C125.672 101.565 126.491 105.387 128.569 106.543C129.509 107.066 130.572 107.335 131.644 107.335C132.743 107.335 133.765 107.687 134.885 107.687C136.027 107.687 136.631 107.516 137.618 107.022C137.978 106.842 138.737 106.688 139.034 107.022C139.478 107.523 139.999 108.136 140.351 108.704C140.518 108.973 140.628 109.301 140.957 109.408C141.084 109.449 141.341 109.392 141.445 109.486C141.66 109.68 141.478 110.779 141.396 111.041C141.207 111.647 141.308 112.375 141.308 113.006C141.308 113.583 141.027 115.748 141.66 115.783C142.629 115.837 143.561 116.311 144.559 116.311C145.037 116.311 145.534 116.487 146.052 116.487C146.7 116.487 146.404 115.056 146.404 114.551C146.404 113.464 146.248 111.905 146.853 110.953C147.497 109.939 147.966 108.433 148.151 107.228C148.455 105.249 148.512 103.222 148.512 101.214C148.512 100.401 148.337 99.6273 148.337 98.8092C148.337 98.1661 148.415 97.4826 147.985 96.9515C147.453 96.2928 147.186 95.4064 146.677 94.7516C146.391 94.3833 146.078 93.5309 145.701 93.2948C145.477 93.1546 145.456 92.9698 145.34 92.7374C145.227 92.5121 144.746 92.2483 144.549 92.0335C144.084 91.5258 143.264 90.9696 142.636 90.6549C139.993 89.3312 136.594 89.8262 134.27 87.7314C133.896 87.3942 132.915 87.4782 132.425 87.2327C132.217 87.1288 131.518 86.8354 131.478 86.6559C131.308 85.8921 130.973 84.3975 131.38 83.664C131.645 83.1858 132.643 81.5289 133.225 81.4641C133.589 81.4235 134.722 80.3984 133.811 81.4934C133.207 82.2187 132.542 82.9254 132.073 83.752C131.888 84.0783 131.492 84.2285 131.468 84.6319C131.455 84.8456 131.468 83.8984 131.468 83.7715C131.468 83.1955 131.691 82.8248 132.093 82.4222C132.786 81.7284 133.816 81.65 134.592 81.1121C135.076 80.7764 135.424 80.3377 135.783 79.9779C135.957 79.8037 137.108 79.7107 137.345 79.7041C138.693 79.6666 140.047 79.7041 141.396 79.7041C142.404 79.7041 143.032 80.1732 143.778 80.8579C144.292 81.3298 144.525 82.1434 145.037 82.6569C145.45 83.0706 145.824 83.5299 146.326 83.8498C146.759 84.126 148.859 84.7719 149.03 83.8302C149.205 82.8675 150.172 80.9102 151.148 80.4472C152.628 79.745 153.425 80.5236 154.135 81.6792C154.353 82.0325 155.174 82.9227 154.36 82.8622C153.33 82.7858 152.419 81.9543 151.714 81.249C150.838 80.3711 153.853 82.5042 154.926 83.1262C155.483 83.4489 156.276 83.7323 156.732 84.1431C157.229 84.5907 157.746 84.7192 158.353 85.023C158.953 85.3239 157.835 84.8451 157.581 84.5342C156.881 83.6762 156.312 81.7876 156.029 80.7014C155.921 80.2862 155.58 80.0847 155.346 79.7628C155.041 79.3424 154.829 79.0044 154.565 78.5895C154.438 78.3891 154.22 78.3683 154.096 78.1202C153.961 77.8487 154.036 77.5789 153.921 77.3184C153.706 76.8337 154.285 77.8152 154.331 77.8757C155.093 78.8853 156.194 79.8572 156.742 80.9947C157.242 82.0314 157.582 82.8456 157.65 84.0257C157.671 84.4026 157.949 85.1386 158.177 85.4239C158.426 85.7357 158.997 85.3419 159.299 85.7661C159.918 86.6337 157.279 84.8823 156.595 84.0649C156.016 83.372 155.75 82.4727 155.453 81.64C155.237 81.0324 155.061 80.4943 154.741 79.9192C154.62 79.7015 154.16 79.2199 154.135 79.0001C154.067 78.3876 153.464 77.7023 153.179 77.1718C152.861 76.5813 152.567 76.0001 152.203 75.4411C151.7 74.6708 150.861 74.2467 150.445 73.4661C150.088 72.7952 148.969 71.9566 148.376 71.5106C147.072 70.531 146.066 69.1656 144.822 68.0983C143.581 67.0322 141.705 67.0313 140.342 66.3188C139.232 65.7387 135.595 64.9402 136.847 64.9402C137.977 64.9402 139.592 65.8484 140.605 66.2895C141.759 66.7921 140.126 65.9406 139.824 65.693C138.387 64.5149 137.156 63.6996 135.119 63.3758C132.196 62.911 129.265 62.14 126.509 61.0488C123.646 59.9149 120.47 60.1688 117.45 60.1688C115.494 60.1688 113.542 59.9928 111.573 59.9928C109.565 59.9928 107.558 59.9928 105.55 59.9928C104.91 59.9928 103.348 59.6775 102.729 60.0319C102.667 60.0674 103.683 60.2327 103.822 60.2568C104.991 60.4587 106.275 60.3737 107.454 60.335C109.994 60.2516 112.444 59.2888 114.951 59.2888C115.286 59.2888 116.83 59.3701 116.064 59.8559C114.516 60.8363 112.263 62.4567 110.324 62.4567C108.946 62.4567 113.046 61.9287 114.424 61.9287C114.876 61.9287 115.352 61.9751 115.8 61.9189C116.165 61.8733 114.191 61.6822 113.965 61.6647C112.932 61.5852 111.905 61.5767 110.87 61.5767C110.339 61.5767 111.87 61.5767 111.983 61.5767C114.12 61.5767 116.253 61.502 118.377 61.7625C120.24 61.9909 122.14 62.4587 123.99 62.8087C124.937 62.9879 125.888 62.9937 126.821 63.2487C127.587 63.4577 128.21 63.6887 129.008 63.6887C130.228 63.6887 131.218 64.3091 132.386 64.3926C133.253 64.4547 134.028 64.9563 134.875 65.0868C136.108 65.2768 134.43 64.8185 134.026 64.7055C131.747 64.0686 129.849 62.4811 127.807 61.3225C127.269 61.0171 126.275 60.8568 125.669 61.0879C123.721 61.8313 121.736 61.494 119.734 61.4007C119.498 61.3897 118.506 61.3552 118.367 61.1465C118.286 61.024 118.662 61.1573 118.807 61.1856C119.343 61.2912 120.119 61.4873 120.613 61.6061C122.966 62.1718 125.332 62.6669 127.71 63.1216C129 63.3683 131.263 63.3609 132.483 64.0798C132.68 64.1959 132.961 64.2607 132.698 64.3926" stroke="#187992" stroke-width="3" stroke-linecap="round"/>
<path d="M84.4399 66.1727C86.1665 68.1187 87.2143 67.8499 88.3628 68.6424C89.7843 69.6232 91.2994 70.4082 92.706 71.4208C94.4684 72.6895 97.0648 74.8496 97.7917 77.0337C98.2369 78.3716 99.0299 79.4829 98.8004 80.9768C98.47 83.1277 96.758 84.6271 96.2365 86.7161C95.9477 87.8734 95.7882 88.6609 95.7882 89.9155C95.7882 91.7738 96.7886 94.6497 97.9178 96.1037C98.7222 97.1396 97.3998 101.204 97.0491 102.236C96.6826 103.314 97.4818 103.261 98.4221 103.611C100.323 104.318 102.26 104.909 104.166 105.604C108.277 107.101 112.119 109.08 115.949 111.189C117.08 111.811 118.931 113.28 120.32 113.462C120.941 113.543 120.755 112.414 120.768 112.087C120.858 109.844 121.027 107.666 122.001 105.618C122.141 105.324 122.815 103.426 123.332 103.611C126.014 104.57 127.81 106.692 130.268 108.098C130.585 108.28 130.968 108.607 131.472 108.607C132.138 108.607 132.912 108.147 133.616 108.045C134.846 107.867 137.668 106.541 138.856 107.456C139.383 107.862 141.125 112.44 140.761 112.648C139.968 113.102 139.92 114.553 139.92 115.482C139.92 117.312 141.11 117.048 142.708 117.208C143.665 117.304 144.627 117.805 145.552 118.064C146.702 118.387 147.218 115.44 147.472 114.626C148.367 111.757 149.251 108.168 149.251 105.127C149.251 102.87 149.64 100.187 148.803 98.0542C148.294 96.7595 147.651 95.5921 147.108 94.3216C146.487 92.8702 146.685 91.9775 145.397 91.3326C144.637 90.9521 144.432 90.6878 141.798 89.5225C140.89 89.1211 134.701 87.011 133.742 86.7582C132.617 86.4618 133.124 84.6818 133.42 83.8535C134.664 80.365 137.431 79.9771 140.649 80.6821C141.87 80.9498 142.393 81.1946 143.059 82.1415C144.085 83.6029 146.299 85.0128 147.85 85.8601C148.795 86.3763 149.662 83.5891 150.134 83.0115C150.87 82.1108 151.762 82.2594 152.782 82.7309C154.852 83.6878 156.943 85.0478 158.722 86.5056C159.917 87.4848 160.849 86.174 161.104 85.2067" stroke="#187992" stroke-width="4" stroke-linecap="round"/>
<path d="M61.7437 121.236C63.6973 121.236 65.6642 121.106 67.5579 120.604C68.976 120.228 70.4322 120.28 71.817 119.847C72.7168 119.565 73.5383 119.438 74.3388 118.836C75.3847 118.051 76.9464 116.826 77.5191 115.679C77.7021 115.312 78.6848 113.911 79.0323 113.911C81.0571 113.911 82.3992 115.326 84.0619 116.437C86.2449 117.894 88.071 119.788 89.2317 122.162C89.3046 122.311 91.1805 126.109 90.6047 126.273C89.6035 126.56 89.7188 127.589 89.2877 128.561C89.08 129.029 92.068 130.843 92.5101 131.704C93.2892 133.221 93.459 134.565 92.8183 136.082C92.1548 137.653 87.0511 138.377 85.6451 138.664C83.9021 139.02 81.5737 139.348 82.4227 141.498C82.9881 142.931 84.0789 143.947 85.1967 144.979C87.746 147.33 91.7921 144.327 94.5275 145.736C96.093 146.543 97.8916 147.971 98.9267 149.385C100.061 150.934 101.431 151.171 102.962 149.637C104.06 148.537 105.452 145.874 104.993 144.221C104.606 142.826 103.858 141.774 103.858 140.292C103.858 139.118 105.921 139.799 106.576 139.955C110.1 140.792 113.321 141.19 116.958 141.19C120.343 141.19 123.72 141.442 127.101 141.442C127.585 141.442 127.397 141.535 127.157 141.962C126.435 143.248 125.945 144.589 125.546 145.989C125.265 146.976 124.364 147.386 125.728 147.645C127.573 147.994 129.133 148.588 130.646 149.637C130.964 149.858 131.534 150.785 131.599 150.03C131.662 149.294 132.068 148.156 132.607 147.617C133.919 146.302 136.57 150.103 137.399 150.591C138.333 151.142 139.845 153.205 140.229 154.071C140.419 154.5 140.946 154.914 141.238 155.278C141.505 155.613 141.962 156.483 142.19 156.597" stroke="#187992" stroke-width="4" stroke-linecap="round"/>
</g>
</g>
<defs>
<filter id="filter0_dd_380_3666" x="0.0999999" y="0.0999999" width="228.8" height="229.8" filterUnits="userSpaceOnUse" color-interpolation-filters="sRGB">
<feFlood flood-opacity="0" result="BackgroundImageFix"/>
<feColorMatrix in="SourceAlpha" type="matrix" values="0 0 0 0 0 0 0 0 0 0 0 0 0 0 0 0 0 0 127 0" result="hardAlpha"/>
<feOffset dy="4"/>
<feGaussianBlur stdDeviation="2.95"/>
<feComposite in2="hardAlpha" operator="out"/>
<feColorMatrix type="matrix" values="0 0 0 0 0 0 0 0 0 0 0 0 0 0 0 0 0 0 0.25 0"/>
<feBlend mode="normal" in2="BackgroundImageFix" result="effect1_dropShadow_380_3666"/>
<feColorMatrix in="SourceAlpha" type="matrix" values="0 0 0 0 0 0 0 0 0 0 0 0 0 0 0 0 0 0 127 0" result="hardAlpha"/>
<feOffset dy="4"/>
<feGaussianBlur stdDeviation="2"/>
<feComposite in2="hardAlpha" operator="out"/>
<feColorMatrix type="matrix" values="0 0 0 0 0 0 0 0 0 0 0 0 0 0 0 0 0 0 0.25 0"/>
<feBlend mode="normal" in2="effect1_dropShadow_380_3666" result="effect2_dropShadow_380_3666"/>
<feBlend mode="normal" in="SourceGraphic" in2="effect2_dropShadow_380_3666" result="shape"/>
</filter>
<radialGradient id="paint0_radial_380_3666" cx="0" cy="0" r="1" gradientUnits="userSpaceOnUse" gradientTransform="translate(114.172 111) rotate(90) scale(73.2138 81.3495)">
<stop offset="0.504" stop-color="#FBA324"/>
<stop offset="1" stop-color="#FE4451"/>
</radialGradient>
</defs>
</svg>
