<svg width="96" height="94" viewBox="0 0 96 94" fill="none" xmlns="http://www.w3.org/2000/svg">
<g filter="url(#filter0_d_1270_4647)">
<path d="M91.689 43.1873C91.689 66.7812 72.0574 85.9078 47.8406 85.9078C23.6238 85.9078 3.99219 66.7812 3.99219 43.1873C3.99219 19.5934 23.6238 0.466797 47.8406 0.466797C72.0574 0.466797 91.689 19.5934 91.689 43.1873Z" fill="#FBA324"/>
</g>
<ellipse cx="5.40597" cy="5.26691" rx="5.40597" ry="5.26691" transform="matrix(-1 0 0 1 70.0649 26.8013)" fill="#FCF4E1"/>
<ellipse cx="5.40597" cy="5.26691" rx="5.40597" ry="5.26691" transform="matrix(-1 0 0 1 36.4282 26.8013)" fill="#FCF4E1"/>
<path d="M34.4207 55.8565C32.8179 55.639 31.5293 54.2264 32.0842 52.707C32.2898 52.1441 32.5632 51.5667 32.9028 50.8677C33.748 49.1282 34.9869 47.5476 36.5486 46.2162C38.1104 44.8848 39.9644 43.8287 42.005 43.1082C44.0455 42.3876 46.2325 42.0168 48.4412 42.0168C50.6498 42.0168 52.8368 42.3876 54.8773 43.1082C56.9179 43.8287 58.7719 44.8848 60.3337 46.2162C61.8954 47.5476 63.1343 49.1282 63.9795 50.8677C64.3106 51.5492 64.6249 52.16 64.8847 52.7642C65.5782 54.377 64.2173 55.8854 62.4683 56.0367L62.2784 56.0531C60.4044 56.2152 58.8276 54.6691 58.0055 52.9772V52.9772C57.4853 51.9064 56.7227 50.9335 55.7614 50.114C54.8001 49.2945 53.6589 48.6444 52.4028 48.2009C51.1468 47.7574 49.8007 47.5291 48.4412 47.5291C47.0817 47.5291 45.7355 47.7574 44.4795 48.2009C43.2234 48.6444 42.0822 49.2945 41.1209 50.114C40.1596 50.9335 39.397 51.9064 38.8768 52.9772V52.9772C38.068 54.6417 36.4565 56.1329 34.6227 55.884L34.4207 55.8565Z" fill="#FCF4E1"/>
<defs>
<filter id="filter0_d_1270_4647" x="-0.0078125" y="0.466797" width="95.6968" height="93.4409" filterUnits="userSpaceOnUse" color-interpolation-filters="sRGB">
<feFlood flood-opacity="0" result="BackgroundImageFix"/>
<feColorMatrix in="SourceAlpha" type="matrix" values="0 0 0 0 0 0 0 0 0 0 0 0 0 0 0 0 0 0 127 0" result="hardAlpha"/>
<feOffset dy="4"/>
<feGaussianBlur stdDeviation="2"/>
<feComposite in2="hardAlpha" operator="out"/>
<feColorMatrix type="matrix" values="0 0 0 0 0 0 0 0 0 0 0 0 0 0 0 0 0 0 0.25 0"/>
<feBlend mode="normal" in2="BackgroundImageFix" result="effect1_dropShadow_1270_4647"/>
<feBlend mode="normal" in="SourceGraphic" in2="effect1_dropShadow_1270_4647" result="shape"/>
</filter>
</defs>
</svg>
