<svg width="97" height="94" viewBox="0 0 97 94" fill="none" xmlns="http://www.w3.org/2000/svg">
<g filter="url(#filter0_d_1270_4649)">
<path d="M92.1461 43.1873C92.1461 66.7812 72.5145 85.9078 48.2976 85.9078C24.0808 85.9078 4.44922 66.7812 4.44922 43.1873C4.44922 19.5934 24.0808 0.466797 48.2976 0.466797C72.5145 0.466797 92.1461 19.5934 92.1461 43.1873Z" fill="#187992"/>
</g>
<ellipse cx="31.4792" cy="31.4832" rx="5.40597" ry="5.26691" fill="#FCF4E1"/>
<ellipse cx="65.1164" cy="31.4832" rx="5.40597" ry="5.26691" fill="#FCF4E1"/>
<path d="M62.318 48.0741C63.9208 48.2917 65.2094 49.7043 64.6546 51.2237C64.449 51.7865 64.1756 52.364 63.836 53.063C62.9907 54.8025 61.7519 56.3831 60.1901 57.7145C58.6284 59.0458 56.7743 60.1019 54.7338 60.8225C52.6933 61.543 50.5063 61.9139 48.2976 61.9139C46.089 61.9139 43.902 61.543 41.8614 60.8225C39.8209 60.1019 37.9668 59.0458 36.4051 57.7145C34.8433 56.3831 33.6045 54.8025 32.7593 53.063C32.4281 52.3815 32.1139 51.7706 31.8541 51.1664C31.1606 49.5537 32.5214 48.0453 34.2704 47.894L34.4603 47.8776C36.3344 47.7155 37.9112 49.2616 38.7332 50.9535C39.2535 52.0242 40.0161 52.9971 40.9774 53.8166C41.9387 54.6361 43.0799 55.2862 44.3359 55.7297C45.5919 56.1732 46.9381 56.4015 48.2976 56.4015C49.6571 56.4015 51.0033 56.1732 52.2593 55.7297C53.5153 55.2862 54.6566 54.6361 55.6179 53.8166C56.5792 52.9971 57.3417 52.0242 57.862 50.9535C58.6708 49.2889 60.2823 47.7978 62.1161 48.0467L62.318 48.0741Z" fill="#FCF4E1"/>
<defs>
<filter id="filter0_d_1270_4649" x="0.449219" y="0.466797" width="95.6968" height="93.4409" filterUnits="userSpaceOnUse" color-interpolation-filters="sRGB">
<feFlood flood-opacity="0" result="BackgroundImageFix"/>
<feColorMatrix in="SourceAlpha" type="matrix" values="0 0 0 0 0 0 0 0 0 0 0 0 0 0 0 0 0 0 127 0" result="hardAlpha"/>
<feOffset dy="4"/>
<feGaussianBlur stdDeviation="2"/>
<feComposite in2="hardAlpha" operator="out"/>
<feColorMatrix type="matrix" values="0 0 0 0 0 0 0 0 0 0 0 0 0 0 0 0 0 0 0.25 0"/>
<feBlend mode="normal" in2="BackgroundImageFix" result="effect1_dropShadow_1270_4649"/>
<feBlend mode="normal" in="SourceGraphic" in2="effect1_dropShadow_1270_4649" result="shape"/>
</filter>
</defs>
</svg>
