<svg width="81" height="80" viewBox="0 0 81 80" fill="none" xmlns="http://www.w3.org/2000/svg">
<g filter="url(#filter0_d_817_4618)">
<path d="M76.6141 35.9312C76.6141 55.7449 60.5519 71.8071 40.7382 71.8071C20.9244 71.8071 4.86218 55.7449 4.86218 35.9312C4.86218 16.1174 20.9244 0.0551758 40.7382 0.0551758C60.5519 0.0551758 76.6141 16.1174 76.6141 35.9312Z" fill="#FFD500"/>
</g>
<ellipse cx="26.9775" cy="26.1021" rx="4.42307" ry="4.42307" fill="#FCF4E1"/>
<circle cx="54.4989" cy="26.1021" r="4.42307" fill="#FCF4E1"/>
<path d="M26.9775 41.3371C26.9775 39.98 28.0806 38.8799 29.4377 38.8799C37.9117 38.8799 43.5647 38.8799 52.0387 38.8799C53.3958 38.8799 54.4988 39.98 54.4988 41.3371V41.3371C54.4988 42.6942 53.3958 43.7944 52.0387 43.7944C43.5647 43.7944 37.9117 43.7944 29.4377 43.7944C28.0806 43.7944 26.9775 42.6942 26.9775 41.3371V41.3371Z" fill="#FCF4E1"/>
<defs>
<filter id="filter0_d_817_4618" x="0.862183" y="0.0551758" width="79.752" height="79.752" filterUnits="userSpaceOnUse" color-interpolation-filters="sRGB">
<feFlood flood-opacity="0" result="BackgroundImageFix"/>
<feColorMatrix in="SourceAlpha" type="matrix" values="0 0 0 0 0 0 0 0 0 0 0 0 0 0 0 0 0 0 127 0" result="hardAlpha"/>
<feOffset dy="4"/>
<feGaussianBlur stdDeviation="2"/>
<feComposite in2="hardAlpha" operator="out"/>
<feColorMatrix type="matrix" values="0 0 0 0 0 0 0 0 0 0 0 0 0 0 0 0 0 0 0.25 0"/>
<feBlend mode="normal" in2="BackgroundImageFix" result="effect1_dropShadow_817_4618"/>
<feBlend mode="normal" in="SourceGraphic" in2="effect1_dropShadow_817_4618" result="shape"/>
</filter>
</defs>
</svg>
