<svg width="96" height="94" viewBox="0 0 96 94" fill="none" xmlns="http://www.w3.org/2000/svg">
<g filter="url(#filter0_d_1270_4646)">
<path d="M91.8492 43.1873C91.8492 66.7812 72.2176 85.9078 48.0008 85.9078C23.784 85.9078 4.15234 66.7812 4.15234 43.1873C4.15234 19.5934 23.784 0.466797 48.0008 0.466797C72.2176 0.466797 91.8492 19.5934 91.8492 43.1873Z" fill="#FE4451"/>
</g>
<ellipse cx="5.40597" cy="5.26691" rx="5.40597" ry="5.26691" transform="matrix(-1 0 0 1 70.2251 26.8013)" fill="#FCF4E1"/>
<ellipse cx="5.40597" cy="5.26691" rx="5.40597" ry="5.26691" transform="matrix(-1 0 0 1 36.5884 26.8013)" fill="#FCF4E1"/>
<path d="M64.8193 54.3064C64.8193 55.9224 63.5057 57.2324 61.8897 57.2324C51.4639 57.2324 44.5376 57.2324 34.1118 57.2324C32.4958 57.2324 31.1822 55.9224 31.1822 54.3064V54.3064C31.1822 52.6903 32.4958 51.3803 34.1118 51.3803C44.5376 51.3803 51.4639 51.3803 61.8897 51.3803C63.5057 51.3803 64.8193 52.6903 64.8193 54.3064V54.3064Z" fill="#FCF4E1"/>
<path d="M33.9803 55.8565C32.3775 55.639 31.0889 54.2264 31.6438 52.707C31.8493 52.1441 32.1227 51.5667 32.4624 50.8677C33.3076 49.1282 34.5464 47.5476 36.1082 46.2162C37.6699 44.8848 39.524 43.8287 41.5645 43.1082C43.6051 42.3876 45.7921 42.0168 48.0007 42.0168C50.2094 42.0168 52.3964 42.3876 54.4369 43.1082C56.4774 43.8287 58.3315 44.8848 59.8933 46.2162C61.455 47.5476 62.6938 49.1282 63.5391 50.8677C63.8702 51.5492 64.1845 52.16 64.4443 52.7642C65.1377 54.377 63.7769 55.8854 62.0279 56.0367L61.838 56.0531C59.9639 56.2152 58.3872 54.6691 57.5651 52.9772V52.9772C57.0448 51.9064 56.17 53.7967 55.2087 52.9772C54.2474 52.1577 53.7617 53.4207 52.5057 52.9772C51.2497 52.5337 49.6606 52.5506 48.3011 52.5506C46.9416 52.5506 45.9531 52.1071 44.6971 52.5506C43.4411 52.9941 42.5258 52.1577 41.5645 52.9772C40.6032 53.7967 38.9566 51.9064 38.4363 52.9772V52.9772C37.6276 54.6417 36.016 56.1329 34.1822 55.884L33.9803 55.8565Z" fill="#FCF4E1"/>
<defs>
<filter id="filter0_d_1270_4646" x="0.152344" y="0.466797" width="95.6968" height="93.4409" filterUnits="userSpaceOnUse" color-interpolation-filters="sRGB">
<feFlood flood-opacity="0" result="BackgroundImageFix"/>
<feColorMatrix in="SourceAlpha" type="matrix" values="0 0 0 0 0 0 0 0 0 0 0 0 0 0 0 0 0 0 127 0" result="hardAlpha"/>
<feOffset dy="4"/>
<feGaussianBlur stdDeviation="2"/>
<feComposite in2="hardAlpha" operator="out"/>
<feColorMatrix type="matrix" values="0 0 0 0 0 0 0 0 0 0 0 0 0 0 0 0 0 0 0.25 0"/>
<feBlend mode="normal" in2="BackgroundImageFix" result="effect1_dropShadow_1270_4646"/>
<feBlend mode="normal" in="SourceGraphic" in2="effect1_dropShadow_1270_4646" result="shape"/>
</filter>
</defs>
</svg>
