<svg width="20" height="24" viewBox="0 0 20 24" fill="none" xmlns="http://www.w3.org/2000/svg">
<path d="M15.2938 23.4088H4.70653C3.55331 23.3668 2.47906 22.8121 1.77717 21.8961C1.07528 20.9802 0.819084 19.7986 1.07856 18.6742L1.35237 17.3736C1.66729 15.6129 3.18075 14.3191 4.96893 14.2818H15.0314C16.8196 14.3191 18.3331 15.6129 18.648 17.3736L18.9218 18.6742C19.1813 19.7986 18.9251 20.9802 18.2232 21.8961C17.5213 22.8121 16.4471 23.3668 15.2938 23.4088Z" fill="white"/>
<path d="M10.5706 12.0001H9.42975C6.9094 12.0001 4.86626 9.95691 4.86626 7.43656V4.42466C4.86321 3.40707 5.2661 2.43027 5.98565 1.71072C6.7052 0.991174 7.682 0.588284 8.69959 0.591326H11.3008C12.3184 0.588284 13.2952 0.991174 14.0147 1.71072C14.7343 2.43027 15.1372 3.40707 15.1341 4.42466V7.43656C15.1341 8.64688 14.6533 9.80762 13.7975 10.6634C12.9417 11.5193 11.7809 12.0001 10.5706 12.0001Z" fill="white"/>
</svg>
