<svg width="81" height="80" viewBox="0 0 81 80" fill="none" xmlns="http://www.w3.org/2000/svg">
<g filter="url(#filter0_d_817_4604)">
<path d="M76.1496 35.9312C76.1496 55.7449 60.0873 71.8071 40.2736 71.8071C20.4598 71.8071 4.39758 55.7449 4.39758 35.9312C4.39758 16.1174 20.4598 0.0551758 40.2736 0.0551758C60.0873 0.0551758 76.1496 16.1174 76.1496 35.9312Z" fill="#FE4451"/>
</g>
<ellipse cx="4.42307" cy="4.42307" rx="4.42307" ry="4.42307" transform="matrix(-1 0 0 1 58.4573 22.1705)" fill="#FCF4E1"/>
<circle cx="4.42307" cy="4.42307" r="4.42307" transform="matrix(-1 0 0 1 30.936 22.1705)" fill="#FCF4E1"/>
<path d="M54.0342 45.2687C54.0342 46.6258 52.9311 47.726 51.574 47.726C43.1 47.726 37.447 47.726 28.973 47.726C27.6159 47.726 26.5129 46.6258 26.5129 45.2687V45.2687C26.5129 43.9116 27.6159 42.8114 28.973 42.8114C37.447 42.8114 43.1 42.8114 51.574 42.8114C52.9311 42.8114 54.0342 43.9116 54.0342 45.2687V45.2687Z" fill="#FCF4E1"/>
<path d="M28.7931 46.5693C27.4858 46.3872 26.4368 45.2362 26.8684 43.9889C27.0389 43.496 27.2701 42.9942 27.5603 42.381C28.2519 40.9202 29.2655 39.5929 30.5433 38.4748C31.8211 37.3567 33.338 36.4698 35.0076 35.8647C36.6771 35.2596 38.4665 34.9482 40.2735 34.9482C42.0806 34.9482 43.87 35.2596 45.5395 35.8647C47.209 36.4698 48.726 37.3567 50.0038 38.4748C51.2816 39.5929 52.2952 40.9202 52.9867 42.381C53.2689 42.9772 53.5362 43.509 53.7537 44.0371C54.2997 45.363 53.1849 46.5945 51.7566 46.7213L51.6647 46.7295C50.095 46.8688 48.7732 45.5769 48.0989 44.1526V44.1526C47.6733 43.2534 46.9575 44.8408 46.171 44.1526C45.3844 43.4643 44.9871 44.525 43.9594 44.1526C42.9318 43.7801 41.6316 43.7943 40.5193 43.7943C39.4069 43.7943 38.5982 43.4219 37.5705 43.7943C36.5429 44.1668 35.7941 43.4643 35.0076 44.1526C34.221 44.8408 32.8738 43.2534 32.4481 44.1526V44.1526C31.7851 45.5531 30.4337 46.7979 28.899 46.5841L28.7931 46.5693Z" fill="#FCF4E1"/>
<defs>
<filter id="filter0_d_817_4604" x="0.397583" y="0.0551758" width="79.752" height="79.752" filterUnits="userSpaceOnUse" color-interpolation-filters="sRGB">
<feFlood flood-opacity="0" result="BackgroundImageFix"/>
<feColorMatrix in="SourceAlpha" type="matrix" values="0 0 0 0 0 0 0 0 0 0 0 0 0 0 0 0 0 0 127 0" result="hardAlpha"/>
<feOffset dy="4"/>
<feGaussianBlur stdDeviation="2"/>
<feComposite in2="hardAlpha" operator="out"/>
<feColorMatrix type="matrix" values="0 0 0 0 0 0 0 0 0 0 0 0 0 0 0 0 0 0 0.25 0"/>
<feBlend mode="normal" in2="BackgroundImageFix" result="effect1_dropShadow_817_4604"/>
<feBlend mode="normal" in="SourceGraphic" in2="effect1_dropShadow_817_4604" result="shape"/>
</filter>
</defs>
</svg>
